<svg xmlns="http://www.w3.org/2000/svg" xmlns:xlink="http://www.w3.org/1999/xlink" id="svg" version="1.1" viewBox="82.6 84.9 234.2 74.6"><g id="svgg"><path id="path0" d="M114.787 89.986 C 114.747 90.025,114.186 90.123,113.542 90.204 C 112.379 90.350,111.026 90.564,110.026 90.760 C 108.354 91.087,107.947 91.195,107.529 91.419 C 107.274 91.555,106.823 91.667,106.528 91.667 C 106.232 91.667,105.990 91.796,105.990 91.955 C 105.990 92.123,106.180 92.170,106.445 92.068 C 107.149 91.797,109.979 91.152,110.417 91.164 C 110.632 91.169,109.821 91.465,108.615 91.822 C 105.841 92.641,102.604 93.982,102.604 94.311 C 102.604 94.449,102.484 94.488,102.337 94.397 C 101.872 94.109,102.191 94.884,102.734 95.360 C 103.091 95.672,103.142 95.819,102.897 95.825 C 102.629 95.831,102.586 96.046,102.727 96.680 C 102.831 97.145,102.923 97.673,102.933 97.852 C 102.943 98.031,103.173 98.177,103.444 98.177 C 103.715 98.177,103.871 98.284,103.791 98.414 C 103.710 98.544,104.587 98.253,105.738 97.767 C 110.415 95.795,117.536 94.760,120.964 95.555 C 121.393 95.655,120.280 95.685,118.490 95.622 C 116.699 95.559,115.321 95.598,115.426 95.710 C 115.531 95.822,116.762 95.951,118.160 95.998 C 120.840 96.088,121.222 96.133,123.307 96.600 C 126.967 97.420,131.109 99.245,134.165 101.384 C 135.123 102.055,135.999 102.604,136.112 102.604 C 136.438 102.604,140.104 98.872,140.104 98.540 C 140.104 97.146,130.322 91.906,126.035 91.003 C 125.142 90.814,122.992 90.423,121.745 90.222 C 120.685 90.051,114.921 89.855,114.787 89.986 M118.563 90.555 C 117.958 90.609,116.903 90.610,116.219 90.556 C 115.534 90.502,116.029 90.458,117.318 90.457 C 118.607 90.456,119.167 90.500,118.563 90.555 M112.891 90.900 C 111.571 91.173,110.506 91.161,111.589 90.885 C 112.018 90.776,112.721 90.686,113.151 90.686 C 113.808 90.685,113.766 90.719,112.891 90.900 M104.513 92.466 C 104.360 92.619,104.073 92.770,103.875 92.802 C 103.366 92.883,102.453 93.429,102.606 93.561 C 102.677 93.622,103.438 93.344,104.297 92.943 C 105.207 92.518,105.636 92.208,105.326 92.200 C 105.032 92.193,104.666 92.313,104.513 92.466 M113.044 96.074 C 112.843 96.201,112.520 96.246,112.328 96.172 C 112.136 96.098,111.979 96.173,111.979 96.338 C 111.979 96.638,113.102 96.525,114.583 96.076 C 115.171 95.897,115.146 95.876,114.323 95.860 C 113.822 95.850,113.246 95.946,113.044 96.074 M108.464 97.135 C 108.135 97.276,108.087 97.359,108.333 97.359 C 108.548 97.359,108.958 97.259,109.245 97.135 C 109.573 96.994,109.621 96.912,109.375 96.912 C 109.160 96.912,108.750 97.012,108.464 97.135 M106.641 97.769 C 106.211 97.963,105.625 98.311,105.339 98.543 C 105.052 98.774,105.433 98.663,106.185 98.296 C 106.937 97.929,107.552 97.576,107.552 97.512 C 107.552 97.359,107.545 97.360,106.641 97.769 M114.489 100.442 C 114.460 100.470,114.034 100.564,113.542 100.651 C 111.871 100.945,112.361 101.088,114.583 100.954 C 115.801 100.880,116.445 100.871,116.016 100.933 C 112.440 101.446,108.854 102.432,108.854 102.901 C 108.854 103.041,108.738 103.084,108.597 102.997 C 108.449 102.905,108.405 103.010,108.494 103.242 C 108.595 103.504,108.502 103.646,108.231 103.646 C 108.001 103.646,107.813 103.763,107.813 103.906 C 107.813 104.049,107.978 104.167,108.180 104.167 C 108.410 104.167,108.617 104.580,108.731 105.273 C 108.953 106.610,109.284 107.293,109.710 107.288 C 109.934 107.285,109.925 107.220,109.679 107.064 C 109.443 106.914,109.568 106.845,110.069 106.849 C 110.475 106.852,111.745 106.603,112.891 106.296 C 114.409 105.889,115.680 105.743,117.578 105.759 C 120.184 105.781,122.450 106.136,120.703 106.248 C 120.076 106.289,120.256 106.398,121.615 106.804 C 123.817 107.461,125.580 108.238,127.302 109.312 L 128.692 110.179 130.791 108.122 C 131.945 106.991,132.814 105.942,132.721 105.792 C 132.326 105.152,127.201 102.085,126.522 102.082 C 126.330 102.081,125.861 101.918,125.480 101.719 C 123.686 100.783,115.143 99.790,114.489 100.442 M115.365 111.459 C 114.720 111.575,113.900 111.786,113.542 111.929 C 113.184 112.073,112.539 112.328,112.109 112.495 L 111.328 112.801 111.934 113.294 C 112.267 113.566,112.467 113.905,112.379 114.048 C 112.290 114.191,112.399 114.585,112.620 114.922 C 112.842 115.260,112.963 115.596,112.890 115.669 C 112.328 116.231,113.819 116.682,114.959 116.295 C 116.360 115.819,117.944 115.773,119.360 116.166 C 120.706 116.540,120.432 116.722,118.943 116.444 C 118.286 116.321,117.617 116.302,117.457 116.401 C 117.297 116.499,117.642 116.599,118.223 116.622 C 118.804 116.645,119.702 116.840,120.218 117.056 C 121.330 117.520,121.615 117.544,121.615 117.172 C 121.615 117.020,121.468 116.979,121.289 117.079 C 121.110 117.180,121.545 116.659,122.256 115.923 C 122.967 115.186,123.602 114.583,123.668 114.583 C 123.735 114.583,123.513 114.876,123.177 115.234 C 122.117 116.363,123.016 115.939,124.165 114.769 C 125.453 113.456,125.502 113.187,124.544 112.678 C 124.150 112.469,123.364 112.050,122.796 111.748 C 122.229 111.445,121.467 111.202,121.104 111.206 C 120.646 111.212,120.869 111.362,121.828 111.693 C 122.590 111.957,123.327 112.285,123.465 112.423 C 123.603 112.562,122.921 112.414,121.949 112.095 C 119.923 111.430,117.070 111.155,115.365 111.459 M109.728 113.154 C 109.564 113.583,110.051 114.323,110.498 114.323 C 110.651 114.323,110.559 114.164,110.294 113.970 C 109.998 113.754,109.875 113.451,109.976 113.189 C 110.066 112.953,110.081 112.760,110.010 112.760 C 109.938 112.760,109.811 112.938,109.728 113.154 M112.290 116.235 C 113.509 117.445,114.531 117.735,114.795 116.943 C 114.881 116.685,114.782 116.681,114.327 116.925 C 113.834 117.189,113.648 117.144,113.059 116.617 C 111.601 115.313,111.124 115.075,112.290 116.235 M122.007 116.405 C 121.747 116.692,121.655 116.927,121.803 116.927 C 122.130 116.927,122.780 116.183,122.605 116.008 C 122.536 115.939,122.267 116.117,122.007 116.405 M114.363 125.003 C 111.911 125.521,109.597 126.592,106.250 128.759 C 99.706 132.995,94.938 133.862,90.431 131.635 C 89.374 131.112,88.444 130.518,88.367 130.316 C 87.978 129.303,87.429 129.961,87.583 131.257 C 87.899 133.928,90.588 137.600,93.184 138.904 C 98.890 141.772,105.462 140.594,115.469 134.910 C 121.680 131.383,123.173 130.695,126.693 129.739 C 128.923 129.133,128.977 128.826,127.083 127.553 C 123.521 125.158,118.446 124.140,114.363 125.003 M140.560 131.397 C 139.880 131.751,139.323 132.100,139.323 132.171 C 139.323 132.287,141.901 131.069,142.166 130.828 C 142.488 130.534,141.641 130.835,140.560 131.397 M166.740 147.402 C 166.178 147.627,165.854 148.210,164.791 150.911 C 164.025 152.860,163.934 153.235,164.282 153.020 C 164.467 152.905,164.585 153.015,164.587 153.305 C 164.591 153.704,164.630 153.717,164.844 153.385 C 165.071 153.034,165.216 153.196,165.135 153.711 C 165.054 154.226,165.423 153.817,165.664 153.125 C 165.902 152.443,166.061 152.344,166.921 152.344 C 167.816 152.344,168.680 152.847,168.351 153.177 C 168.277 153.251,168.408 153.470,168.642 153.664 C 169.006 153.966,169.119 153.946,169.429 153.521 C 169.767 153.060,169.920 153.164,169.804 153.776 C 169.777 153.919,169.897 153.896,170.072 153.724 C 170.322 153.479,170.307 153.284,170.000 152.813 C 169.786 152.483,169.460 151.745,169.276 151.172 C 169.092 150.599,168.812 149.896,168.653 149.609 C 168.494 149.323,168.245 148.688,168.099 148.198 C 167.801 147.200,167.575 147.067,166.740 147.402 M178.254 147.398 C 177.900 147.970,178.411 148.667,179.244 148.747 L 180.078 148.828 180.153 151.116 C 180.199 152.494,180.328 153.342,180.479 153.249 C 180.617 153.164,180.729 153.209,180.729 153.348 C 180.729 153.488,180.583 153.662,180.404 153.734 C 180.209 153.812,180.262 153.873,180.534 153.886 C 180.795 153.897,180.998 153.712,181.010 153.451 C 181.023 153.176,181.083 153.125,181.163 153.322 C 181.501 154.161,181.771 153.143,181.771 151.026 L 181.771 148.698 182.682 148.698 C 183.521 148.698,183.594 148.636,183.594 147.917 L 183.594 147.135 181.005 147.135 C 179.545 147.135,178.345 147.250,178.254 147.398 M184.948 147.448 C 184.612 147.784,184.526 150.690,184.794 152.645 C 185.076 154.701,186.447 154.279,186.454 152.133 L 186.458 151.012 187.565 151.092 L 188.672 151.172 188.813 152.398 C 188.979 153.841,189.103 154.011,189.824 153.782 C 190.333 153.621,190.365 153.421,190.365 150.356 L 190.365 147.101 189.648 147.183 C 188.993 147.259,188.926 147.370,188.853 148.503 L 188.774 149.740 187.616 149.740 L 186.458 149.740 186.458 148.596 C 186.458 147.245,185.716 146.680,184.948 147.448 M192.204 150.266 L 192.164 153.397 193.022 153.253 C 193.494 153.174,194.278 153.038,194.764 152.951 C 195.390 152.839,195.595 152.879,195.465 153.089 C 195.222 153.482,195.645 153.470,196.042 153.073 C 196.353 152.761,196.499 153.077,196.366 153.776 C 196.339 153.919,196.463 153.893,196.641 153.718 C 197.412 152.960,196.530 152.143,195.090 152.281 C 193.859 152.400,193.791 152.375,193.927 151.855 C 194.067 151.317,194.213 151.259,195.567 151.200 C 196.303 151.168,196.575 150.450,196.079 149.852 C 195.856 149.584,195.499 149.518,194.886 149.633 C 194.123 149.776,194.010 149.729,194.010 149.262 C 194.010 148.808,194.198 148.714,195.247 148.647 C 196.380 148.574,196.491 148.507,196.567 147.852 L 196.649 147.135 194.447 147.135 L 192.245 147.135 192.204 150.266 M198.335 147.547 C 198.108 148.140,198.148 153.196,198.383 153.566 C 198.492 153.737,198.812 153.834,199.095 153.782 C 199.378 153.729,199.696 153.677,199.802 153.666 C 199.907 153.655,199.977 153.441,199.956 153.190 C 199.935 152.939,199.938 152.383,199.963 151.953 L 200.008 151.172 200.785 152.054 C 201.213 152.538,201.563 153.083,201.563 153.263 C 201.563 153.643,202.145 153.910,202.951 153.898 C 203.460 153.891,203.470 153.864,203.060 153.625 C 202.809 153.479,202.604 153.234,202.604 153.080 C 202.604 152.901,202.745 152.917,202.995 153.125 C 203.488 153.535,203.524 153.040,203.036 152.552 C 202.207 151.723,202.075 151.130,202.613 150.643 C 203.125 150.180,203.304 148.837,202.926 148.292 C 202.140 147.161,198.698 146.603,198.335 147.547 M206.466 148.112 C 206.255 148.649,206.058 149.175,206.027 149.280 C 205.997 149.385,205.624 150.205,205.200 151.102 C 204.275 153.057,204.197 155.071,205.103 153.606 C 205.218 153.419,205.174 153.376,204.988 153.491 C 204.664 153.691,204.570 153.329,204.869 153.030 C 204.969 152.930,205.212 153.116,205.408 153.442 C 205.604 153.769,205.704 153.837,205.630 153.594 C 205.541 153.301,205.612 153.196,205.838 153.283 C 206.035 153.358,206.242 153.186,206.322 152.879 C 206.566 151.943,208.452 152.123,208.896 153.125 C 209.135 153.665,209.426 153.906,209.837 153.906 C 210.785 153.906,210.781 153.296,209.823 151.256 C 209.330 150.207,208.852 149.035,208.760 148.651 C 208.353 146.949,207.044 146.642,206.466 148.112 M212.153 147.309 C 211.869 147.593,211.952 153.598,212.242 153.777 C 212.870 154.166,213.542 153.617,213.542 152.717 C 213.542 152.225,213.630 151.813,213.737 151.802 C 216.626 151.485,217.788 149.406,216.002 147.751 C 215.346 147.143,212.630 146.832,212.153 147.309 M218.229 150.521 C 218.229 154.066,218.268 154.175,219.393 153.743 C 219.756 153.604,219.812 153.151,219.773 150.685 C 219.719 147.303,219.676 147.135,218.852 147.135 L 218.229 147.135 218.229 150.521 M221.855 147.871 C 220.880 149.110,221.443 150.509,223.200 151.211 C 223.760 151.436,224.219 151.727,224.219 151.859 C 224.219 152.289,223.417 152.421,222.801 152.091 C 221.438 151.361,220.643 152.508,221.895 153.399 C 223.489 154.535,226.042 153.622,226.042 151.915 C 226.042 151.244,224.707 149.740,224.111 149.740 C 223.681 149.740,223.041 149.008,223.270 148.778 C 223.363 148.686,223.850 148.737,224.354 148.892 C 225.837 149.347,226.603 148.344,225.382 147.544 C 224.382 146.889,222.490 147.064,221.855 147.871 M226.862 147.366 C 226.162 147.810,226.637 148.563,227.671 148.649 L 228.646 148.729 228.646 151.335 L 228.646 153.941 229.362 153.858 L 230.078 153.776 230.153 151.237 L 230.227 148.698 231.129 148.698 C 231.958 148.698,232.031 148.634,232.031 147.917 L 232.031 147.135 229.622 147.139 C 228.298 147.142,227.056 147.244,226.862 147.366 M237.156 147.573 C 236.970 148.249,237.089 153.582,237.294 153.787 C 237.388 153.881,237.400 153.710,237.321 153.407 C 237.209 152.978,237.270 152.893,237.599 153.019 C 237.933 153.147,238.027 152.999,238.052 152.307 L 238.082 151.432 238.281 152.214 L 238.480 152.995 238.511 152.294 C 238.563 151.110,239.027 151.210,239.884 152.588 C 240.801 154.064,240.997 154.234,240.610 153.216 C 240.380 152.612,240.397 152.567,240.747 152.858 C 240.966 153.040,241.146 153.350,241.146 153.548 C 241.146 153.745,241.259 153.906,241.398 153.906 C 241.537 153.906,241.573 153.701,241.480 153.451 C 241.330 153.051,241.363 153.039,241.748 153.352 C 242.391 153.875,242.285 153.341,241.524 152.219 C 240.914 151.321,240.894 151.204,241.271 150.786 C 242.178 149.784,242.012 148.225,240.934 147.611 C 239.856 146.998,237.321 146.973,237.156 147.573 M243.593 150.390 C 243.621 153.774,243.884 155.048,243.983 152.285 C 244.058 150.214,244.271 149.956,244.271 151.938 C 244.271 153.202,244.336 153.416,244.683 153.283 C 244.909 153.196,245.209 153.125,245.349 153.125 C 245.489 153.125,245.536 153.016,245.454 152.883 C 245.372 152.750,245.570 152.590,245.895 152.528 L 246.484 152.415 245.898 152.379 C 244.817 152.314,245.137 151.302,246.239 151.302 C 246.791 151.302,247.101 151.197,247.005 151.042 C 246.726 150.590,244.710 150.713,244.886 151.172 C 244.968 151.386,244.929 151.826,244.800 152.148 C 244.596 152.656,244.562 152.602,244.548 151.749 C 244.535 150.963,244.649 150.717,245.117 150.529 C 245.439 150.399,245.577 150.286,245.423 150.277 C 244.375 150.215,245.433 148.720,246.577 148.646 C 247.678 148.575,247.794 148.504,247.868 147.856 L 247.950 147.145 245.758 147.161 L 243.566 147.177 243.593 150.390 M250.507 147.518 C 248.654 148.526,248.434 151.523,250.101 153.051 C 251.705 154.521,255.090 154.023,254.573 152.393 C 254.370 151.755,253.975 151.684,253.026 152.116 C 251.932 152.615,251.142 152.230,250.843 151.051 C 250.383 149.240,251.825 148.252,253.722 149.079 C 254.636 149.478,254.940 148.327,254.111 147.608 C 253.451 147.036,251.484 146.987,250.507 147.518 M256.005 150.469 C 256.042 153.777,256.047 153.802,256.650 153.802 C 256.985 153.802,257.213 153.729,257.158 153.640 C 257.005 153.393,258.020 152.608,258.532 152.578 C 258.813 152.562,258.738 152.484,258.333 152.371 C 257.202 152.056,257.472 151.172,258.700 151.172 C 259.382 151.172,259.753 151.043,259.826 150.781 C 259.898 150.523,259.862 150.491,259.720 150.687 C 259.577 150.884,259.158 150.916,258.464 150.782 L 257.422 150.581 258.333 150.520 L 259.245 150.459 258.464 150.260 C 257.911 150.120,257.835 150.048,258.203 150.014 C 258.678 149.971,258.670 149.946,258.116 149.723 C 257.126 149.326,257.611 148.838,259.135 148.698 C 260.042 148.614,260.538 148.451,260.521 148.242 C 260.436 147.186,260.339 147.066,260.154 147.786 C 259.976 148.474,259.932 148.505,259.779 148.041 C 259.636 147.607,259.427 147.532,258.579 147.613 C 257.944 147.674,257.552 147.601,257.552 147.423 C 257.552 147.265,257.195 147.135,256.759 147.135 L 255.967 147.135 256.005 150.469 M261.859 147.380 C 261.776 147.515,261.785 148.906,261.881 150.473 L 262.054 153.320 262.732 153.140 C 263.158 153.027,263.443 152.747,263.495 152.391 C 263.540 152.079,263.765 151.823,263.993 151.823 C 265.565 151.823,267.178 150.159,266.791 148.938 C 266.524 148.100,265.730 147.395,265.410 147.715 C 265.081 148.044,263.204 147.731,263.420 147.383 C 263.504 147.247,263.331 147.135,263.036 147.135 C 262.741 147.135,262.529 147.223,262.565 147.331 C 262.601 147.438,262.513 147.555,262.370 147.591 C 262.227 147.627,262.139 147.539,262.174 147.396 C 262.257 147.067,262.058 147.057,261.859 147.380 M264.323 147.451 C 264.323 147.564,264.557 147.656,264.844 147.656 C 265.130 147.656,265.365 147.546,265.365 147.412 C 265.365 147.278,265.130 147.185,264.844 147.207 C 264.557 147.229,264.323 147.339,264.323 147.451 M268.068 147.514 C 267.988 147.722,267.998 148.015,268.091 148.165 C 268.184 148.315,268.081 148.438,267.862 148.438 C 267.628 148.438,267.522 148.287,267.604 148.073 C 267.681 147.873,267.618 147.631,267.465 147.537 C 267.289 147.428,267.220 147.587,267.279 147.966 C 267.344 148.387,267.560 148.580,267.996 148.607 C 268.339 148.629,268.766 148.658,268.945 148.672 C 269.178 148.691,269.271 149.328,269.271 150.911 C 269.271 152.649,269.350 153.125,269.640 153.125 C 269.843 153.125,270.195 153.196,270.421 153.283 C 270.778 153.420,270.833 153.125,270.833 151.070 L 270.833 148.698 271.723 148.698 C 272.681 148.698,272.986 148.318,272.612 147.591 C 272.296 146.977,268.300 146.909,268.068 147.514 M273.958 150.375 C 273.958 153.765,274.059 154.068,275.098 153.807 C 276.386 153.484,276.018 147.135,274.711 147.135 L 273.958 147.135 273.958 150.375 M278.164 147.919 C 277.713 148.350,277.329 148.848,277.311 149.026 C 277.292 149.203,277.237 149.642,277.188 150.000 C 276.703 153.523,281.499 155.447,283.062 152.358 C 284.818 148.886,280.883 145.320,278.164 147.919 M285.029 147.721 C 284.575 149.651,285.017 153.776,285.677 153.776 C 286.297 153.776,286.329 153.701,286.351 152.214 C 286.379 150.216,286.415 150.049,286.709 150.513 C 286.842 150.724,287.033 150.815,287.132 150.715 C 287.232 150.615,287.151 150.332,286.951 150.087 C 286.714 149.794,286.701 149.707,286.913 149.834 C 287.091 149.941,287.366 150.271,287.525 150.567 C 287.733 150.956,287.733 151.056,287.526 150.928 C 286.923 150.555,287.560 151.784,288.665 153.125 C 289.220 153.799,290.111 154.055,290.381 153.619 C 290.738 153.041,290.617 147.714,290.240 147.401 C 289.414 146.715,288.959 147.186,288.866 148.821 C 288.754 150.764,288.765 150.758,287.895 149.419 C 286.862 147.829,286.176 147.135,285.637 147.135 C 285.363 147.135,285.109 147.381,285.029 147.721 M292.448 150.276 C 292.448 152.303,292.540 153.359,292.708 153.255 C 292.852 153.167,292.969 153.209,292.969 153.348 C 292.969 153.488,292.822 153.664,292.643 153.738 C 292.464 153.813,292.686 153.858,293.135 153.837 L 293.953 153.800 293.993 150.909 C 294.039 147.585,293.929 147.135,293.071 147.135 C 292.448 147.135,292.448 147.137,292.448 150.276 M296.183 147.905 C 295.392 148.757,295.440 150.441,296.248 150.225 C 296.633 150.121,298.159 150.541,298.315 150.793 C 298.394 150.921,297.985 150.859,297.406 150.655 C 296.046 150.175,296.037 150.398,297.396 150.942 C 297.969 151.171,298.438 151.463,298.438 151.591 C 298.438 152.136,298.382 152.223,297.922 152.393 C 297.613 152.507,297.229 152.391,296.858 152.069 C 296.310 151.593,296.260 151.591,295.934 152.020 C 295.526 152.557,295.470 153.125,295.825 153.125 C 295.964 153.125,296.014 152.961,295.938 152.761 C 295.861 152.560,295.927 152.317,296.085 152.219 C 296.278 152.100,296.329 152.279,296.240 152.768 C 296.082 153.641,296.424 153.908,297.656 153.871 L 298.568 153.845 297.786 153.646 L 297.005 153.447 297.830 153.416 C 298.283 153.399,298.702 153.529,298.761 153.704 C 298.828 153.906,299.128 153.761,299.584 153.305 C 300.350 152.538,300.421 151.211,299.738 150.389 C 299.406 149.989,298.840 150.119,299.098 150.536 C 299.179 150.668,299.054 150.702,298.820 150.612 C 298.554 150.510,298.498 150.384,298.671 150.277 C 298.831 150.178,298.610 149.906,298.148 149.634 C 297.199 149.073,297.488 148.430,298.496 148.862 C 299.446 149.269,299.864 149.141,299.948 148.418 C 300.095 147.151,297.243 146.761,296.183 147.905 M301.042 147.949 C 301.042 148.631,301.123 148.698,301.953 148.698 L 302.865 148.698 302.865 151.010 C 302.865 153.377,303.045 153.844,303.957 153.827 C 304.200 153.823,304.391 153.751,304.382 153.668 C 304.373 153.584,304.379 152.432,304.396 151.107 L 304.427 148.698 305.469 148.698 C 306.533 148.698,306.706 148.469,306.348 147.535 C 306.211 147.178,305.776 147.118,303.613 147.155 L 301.042 147.200 301.042 147.949 M308.333 147.460 C 308.333 147.585,308.221 147.618,308.084 147.533 C 307.745 147.323,306.979 148.542,307.080 149.133 C 307.164 149.624,307.649 150.260,307.939 150.260 C 308.030 150.260,308.016 150.114,307.908 149.935 C 307.757 149.683,307.798 149.678,308.088 149.910 C 308.295 150.075,308.874 150.392,309.375 150.615 C 310.246 151.002,310.252 151.013,309.505 150.865 C 309.076 150.779,308.577 150.594,308.398 150.453 C 308.179 150.280,308.073 150.292,308.073 150.491 C 308.073 150.653,308.542 150.973,309.115 151.202 C 310.101 151.597,310.536 152.309,309.831 152.374 C 309.177 152.434,308.456 152.287,308.141 152.029 C 307.745 151.704,306.934 151.975,307.168 152.355 C 307.285 152.543,307.455 152.532,307.711 152.320 C 308.013 152.069,308.054 152.089,307.926 152.422 C 307.839 152.649,307.573 152.888,307.335 152.952 C 306.986 153.047,307.016 153.107,307.487 153.258 C 307.809 153.361,308.073 153.555,308.073 153.689 C 308.073 153.823,308.663 153.905,309.385 153.872 C 310.320 153.829,310.660 153.718,310.570 153.482 C 310.496 153.290,310.584 153.206,310.779 153.280 C 311.330 153.492,311.758 152.708,311.670 151.646 C 311.608 150.888,311.480 150.660,311.136 150.687 C 310.878 150.707,310.756 150.604,310.853 150.447 C 310.959 150.276,310.860 150.234,310.593 150.337 C 310.356 150.428,310.190 150.389,310.224 150.251 C 310.259 150.112,310.007 149.853,309.665 149.674 C 309.323 149.495,309.030 149.232,309.014 149.089 C 308.970 148.700,310.129 148.611,310.561 148.970 C 310.958 149.300,311.719 148.916,311.719 148.387 C 311.719 148.026,311.027 147.393,310.838 147.582 C 310.750 147.671,310.677 147.601,310.677 147.427 C 310.677 147.218,310.283 147.132,309.505 147.172 C 308.861 147.205,308.333 147.335,308.333 147.460 M171.940 147.804 C 171.723 148.038,171.616 149.047,171.619 150.835 C 171.621 152.399,171.714 153.371,171.843 153.168 C 172.009 152.906,172.100 152.961,172.212 153.391 C 172.624 154.966,173.048 153.657,173.084 150.696 C 173.108 148.719,173.030 147.716,172.860 147.822 C 172.716 147.911,172.523 147.864,172.432 147.718 C 172.326 147.549,172.148 147.580,171.940 147.804 M244.813 149.674 C 244.596 150.046,244.547 149.962,244.547 149.219 C 244.547 148.475,244.596 148.391,244.813 148.763 C 244.993 149.073,244.993 149.365,244.813 149.674 M201.255 149.414 C 201.323 149.891,201.214 150.000,200.669 150.000 C 200.124 150.000,200.000 149.876,200.000 149.331 C 200.000 148.440,201.127 148.515,201.255 149.414 M214.802 149.318 C 214.853 149.587,214.737 149.908,214.544 150.030 C 213.872 150.456,213.542 150.269,213.542 149.461 C 213.542 148.535,214.629 148.412,214.802 149.318 M239.974 149.345 C 239.974 149.920,239.164 150.206,238.740 149.782 C 238.302 149.344,238.734 148.652,239.387 148.745 C 239.771 148.799,239.974 149.007,239.974 149.345 M264.797 149.414 C 264.865 149.891,264.756 150.000,264.211 150.000 C 263.666 150.000,263.542 149.876,263.542 149.331 C 263.542 148.440,264.669 148.515,264.797 149.414 M281.449 149.213 C 281.782 149.570,281.896 150.003,281.823 150.629 C 281.619 152.376,280.100 152.872,279.094 151.520 C 277.847 149.844,280.037 147.697,281.449 149.213 M172.062 150.977 C 172.002 151.370,171.953 151.048,171.953 150.260 C 171.953 149.473,172.002 149.150,172.062 149.544 C 172.121 149.938,172.121 150.583,172.062 150.977 M167.219 150.854 C 166.814 151.259,166.587 150.921,166.804 150.238 C 166.973 149.705,167.011 149.694,167.245 150.113 C 167.418 150.422,167.410 150.663,167.219 150.854 M207.957 150.283 C 208.225 150.717,207.622 151.215,207.262 150.856 C 206.962 150.556,207.150 150.000,207.552 150.000 C 207.678 150.000,207.860 150.127,207.957 150.283 M224.164 150.781 C 224.242 150.781,224.240 150.847,224.160 150.927 C 223.996 151.091,222.135 150.368,222.135 150.140 C 222.135 150.059,222.560 150.170,223.079 150.387 C 223.597 150.604,224.086 150.781,224.164 150.781 M195.741 150.602 C 195.840 150.701,195.403 150.773,194.770 150.763 C 193.975 150.750,193.774 150.684,194.118 150.549 C 194.700 150.321,195.486 150.347,195.741 150.602 M288.566 151.088 C 288.792 151.509,288.783 151.581,288.523 151.421 C 288.281 151.271,288.243 151.349,288.383 151.715 C 288.539 152.125,288.512 152.153,288.232 151.875 C 287.868 151.515,287.725 150.208,288.073 150.423 C 288.186 150.493,288.408 150.792,288.566 151.088 M264.782 151.221 C 264.533 151.286,264.064 151.288,263.740 151.226 C 263.416 151.164,263.620 151.110,264.193 151.107 C 264.766 151.104,265.031 151.155,264.782 151.221 M246.615 152.607 C 246.615 152.749,246.841 152.865,247.117 152.865 C 247.435 152.865,247.658 153.081,247.723 153.451 C 247.820 154.005,247.837 154.010,248.048 153.531 C 248.195 153.198,248.166 152.991,247.962 152.923 C 247.792 152.866,247.704 152.738,247.766 152.637 C 247.828 152.537,247.595 152.431,247.247 152.402 C 246.899 152.373,246.615 152.465,246.615 152.607 M246.615 153.507 C 246.615 153.740,246.767 153.831,247.004 153.741 C 247.218 153.658,247.328 153.486,247.249 153.358 C 247.022 152.990,246.615 153.086,246.615 153.507 " stroke="none" fill="#4da1ae" fill-rule="evenodd"/><path id="path1" d="M271.067 113.413 C 265.157 114.632,261.215 120.701,262.232 127.015 C 262.631 129.488,264.349 133.073,265.135 133.073 C 265.276 133.073,265.106 132.692,264.758 132.227 C 264.012 131.230,263.414 130.074,263.177 129.167 C 263.083 128.809,263.351 129.243,263.773 130.132 C 264.195 131.020,265.104 132.368,265.793 133.126 C 266.482 133.885,266.667 134.161,266.205 133.740 C 265.743 133.320,265.365 133.102,265.365 133.258 C 265.365 134.845,270.843 137.135,274.479 137.069 C 278.376 136.997,284.092 133.884,284.111 131.821 C 284.113 131.634,283.482 132.161,282.709 132.993 C 281.936 133.825,280.911 134.715,280.430 134.972 C 279.666 135.381,279.638 135.383,280.208 134.988 C 280.566 134.740,281.563 133.827,282.422 132.961 C 283.281 132.095,284.079 131.416,284.194 131.453 C 285.412 131.843,286.592 125.118,285.830 122.135 C 285.137 119.424,282.961 115.885,281.987 115.885 C 281.844 115.885,282.217 116.442,282.817 117.122 C 283.838 118.280,284.910 120.031,284.884 120.497 C 284.878 120.611,284.629 120.234,284.331 119.661 C 283.483 118.028,282.137 116.512,280.725 115.597 C 279.107 114.549,279.023 114.297,280.599 115.221 C 281.243 115.598,281.771 115.790,281.771 115.647 C 281.771 114.004,275.027 112.597,271.067 113.413 M163.921 113.607 C 163.853 113.786,163.827 119.030,163.864 125.260 L 163.932 136.589 166.146 136.589 L 168.359 136.589 168.430 131.966 L 168.502 127.344 171.816 127.286 C 176.798 127.200,178.222 127.204,178.581 127.307 C 178.826 127.376,178.906 128.555,178.906 132.059 L 178.906 136.719 181.122 136.719 L 183.339 136.719 183.271 125.065 L 183.203 113.411 181.120 113.411 L 179.036 113.411 178.965 118.164 L 178.895 122.917 176.752 122.947 C 175.574 122.964,174.258 123.068,173.828 123.178 C 173.247 123.327,173.448 123.365,174.609 123.330 C 175.469 123.304,176.875 123.356,177.734 123.446 C 178.594 123.536,176.777 123.608,173.698 123.606 C 170.109 123.603,168.893 123.545,170.313 123.444 L 172.526 123.287 170.573 123.167 L 168.620 123.047 168.548 118.509 C 168.504 115.701,168.368 113.839,168.191 113.626 C 167.805 113.161,164.099 113.145,163.921 113.607 M197.194 113.607 C 197.049 113.786,196.619 114.694,196.239 115.625 C 195.615 117.154,193.717 121.577,192.830 123.568 C 192.638 123.997,192.119 125.228,191.675 126.302 C 191.232 127.376,190.706 128.607,190.506 129.036 C 190.307 129.466,189.827 130.579,189.440 131.510 C 189.053 132.441,188.458 133.822,188.118 134.577 C 187.144 136.744,187.149 136.751,189.779 136.664 L 192.057 136.589 193.229 133.920 L 194.401 131.252 199.479 131.255 L 204.557 131.258 205.729 133.984 L 206.901 136.711 209.200 136.715 L 211.500 136.719 211.320 135.900 C 211.221 135.450,210.323 133.252,209.325 131.017 C 208.326 128.782,207.335 126.550,207.121 126.057 C 206.865 125.469,206.665 125.271,206.536 125.479 C 206.403 125.695,206.240 125.575,206.025 125.104 C 205.852 124.723,205.762 124.360,205.826 124.296 C 205.890 124.232,206.020 124.424,206.115 124.724 C 206.210 125.023,206.395 125.202,206.526 125.120 C 206.661 125.037,206.609 124.723,206.406 124.400 C 206.209 124.086,205.900 123.359,205.719 122.786 C 205.538 122.214,205.239 121.510,205.056 121.224 C 204.872 120.938,204.468 120.021,204.158 119.188 C 203.797 118.216,203.476 117.718,203.264 117.799 C 203.053 117.880,202.600 117.183,202.006 115.864 C 201.496 114.730,201.174 113.802,201.290 113.802 C 201.407 113.802,201.563 114.036,201.638 114.323 C 201.713 114.609,201.899 114.844,202.051 114.844 C 202.343 114.844,202.176 114.156,201.751 113.607 C 201.588 113.396,200.787 113.281,199.479 113.281 C 198.179 113.281,197.365 113.397,197.194 113.607 M215.709 113.484 C 215.480 113.630,215.414 116.584,215.448 125.134 L 215.495 136.589 217.773 136.664 L 220.052 136.739 220.052 132.953 L 220.052 129.167 222.331 129.169 L 224.609 129.172 225.791 130.927 C 226.441 131.893,227.601 133.590,228.368 134.701 L 229.764 136.719 232.330 136.719 C 235.341 136.719,235.423 136.611,233.919 134.645 C 233.382 133.942,232.673 132.979,232.344 132.504 C 232.014 132.029,231.205 130.885,230.545 129.961 C 229.818 128.944,229.467 128.242,229.653 128.180 C 235.258 126.312,235.590 116.734,230.134 114.321 C 228.131 113.435,216.818 112.779,215.709 113.484 M239.388 113.469 C 239.134 113.560,239.063 116.138,239.063 125.171 L 239.063 136.757 246.029 136.668 C 254.555 136.560,255.449 136.289,257.439 133.203 C 258.481 131.586,257.931 126.563,256.711 126.563 C 256.568 126.563,256.649 126.866,256.892 127.236 C 257.135 127.607,257.285 127.958,257.226 128.017 C 257.167 128.076,256.953 127.811,256.750 127.428 C 256.546 127.046,255.859 126.401,255.222 125.996 C 254.586 125.592,254.178 125.260,254.316 125.260 C 254.454 125.260,255.004 125.558,255.539 125.921 C 256.073 126.284,256.510 126.468,256.510 126.329 C 256.510 126.028,255.119 125.000,254.712 125.000 C 254.234 125.000,254.393 124.544,255.053 124.024 C 257.879 121.802,257.334 116.400,254.093 114.500 C 252.336 113.470,241.516 112.712,239.388 113.469 M291.580 113.455 C 291.484 113.550,291.406 118.828,291.406 125.184 L 291.406 136.739 293.642 136.664 L 295.877 136.589 295.920 132.943 L 295.964 129.297 298.206 129.222 C 300.408 129.149,300.457 129.161,300.920 129.873 C 301.954 131.465,303.439 133.367,303.556 133.249 C 303.625 133.180,303.079 132.280,302.343 131.249 C 301.607 130.217,300.943 129.214,300.869 129.018 C 300.769 128.759,300.020 128.641,298.088 128.579 L 295.443 128.495 298.073 128.440 L 300.703 128.385 302.145 130.534 C 302.938 131.715,304.189 133.532,304.925 134.570 C 305.661 135.609,306.173 136.457,306.061 136.456 C 305.950 136.455,305.396 135.735,304.830 134.856 C 304.264 133.978,303.758 133.387,303.706 133.544 C 303.654 133.701,304.091 134.479,304.678 135.274 L 305.746 136.719 308.342 136.719 C 311.296 136.719,311.528 136.503,310.217 134.980 C 309.826 134.525,308.747 133.118,307.819 131.855 C 306.892 130.591,306.072 129.499,305.996 129.427 C 305.606 129.057,305.231 128.125,305.472 128.125 C 305.898 128.125,307.813 126.843,307.813 126.558 C 307.813 126.415,307.326 126.651,306.732 127.082 C 306.137 127.512,305.413 127.865,305.123 127.865 C 304.806 127.865,305.162 127.577,306.008 127.148 C 307.014 126.639,307.666 126.067,308.268 125.166 C 308.734 124.469,309.115 124.014,309.115 124.153 C 309.115 124.292,308.818 124.844,308.455 125.379 C 308.092 125.914,307.945 126.303,308.129 126.245 C 309.044 125.953,310.014 123.361,310.009 121.224 C 309.998 116.772,307.609 114.134,303.053 113.542 C 300.899 113.262,291.841 113.193,291.580 113.455 M164.579 125.195 C 164.577 131.462,164.489 136.453,164.384 136.288 C 164.178 135.965,164.251 113.802,164.459 113.802 C 164.527 113.802,164.582 118.929,164.579 125.195 M167.910 118.555 L 167.851 123.307 167.774 118.698 L 167.696 114.088 166.205 113.994 L 164.714 113.901 166.341 113.851 L 167.969 113.802 167.910 118.555 M182.552 113.962 C 180.994 114.158,179.166 114.177,179.167 113.997 C 179.167 113.890,180.075 113.820,181.185 113.841 C 182.295 113.863,182.910 113.917,182.552 113.962 M197.296 114.756 C 197.076 115.162,196.891 115.412,196.885 115.312 C 196.868 115.002,197.474 113.793,197.589 113.908 C 197.648 113.968,197.517 114.349,197.296 114.756 M221.562 113.997 L 216.170 114.073 216.078 115.695 L 215.986 117.318 215.936 115.560 L 215.885 113.802 221.419 113.862 L 226.953 113.921 221.562 113.997 M252.214 114.208 C 252.786 114.410,252.962 114.498,252.604 114.405 C 252.246 114.312,249.082 114.162,245.573 114.071 L 239.193 113.907 245.182 113.874 C 249.729 113.850,251.423 113.930,252.214 114.208 M270.573 114.206 C 269.127 114.662,268.895 114.654,269.922 114.183 C 270.352 113.987,270.938 113.828,271.224 113.831 C 271.510 113.834,271.217 114.003,270.573 114.206 M301.042 113.982 C 296.215 114.169,291.666 114.176,291.666 113.997 C 291.666 113.890,294.215 113.826,297.331 113.854 C 300.446 113.883,302.116 113.941,301.042 113.982 M305.223 114.458 C 306.548 114.926,307.943 115.937,308.374 116.742 C 308.550 117.072,308.292 116.904,307.770 116.351 C 306.830 115.354,306.178 115.007,304.167 114.432 C 303.522 114.248,303.244 114.090,303.548 114.080 C 303.852 114.070,304.606 114.241,305.223 114.458 M230.417 114.951 C 230.803 115.153,231.471 115.709,231.900 116.188 L 232.681 117.057 231.770 116.241 C 231.269 115.793,230.508 115.241,230.078 115.015 C 229.648 114.789,229.391 114.599,229.505 114.594 C 229.620 114.588,230.030 114.749,230.417 114.951 M255.454 116.198 C 255.793 116.738,255.196 116.288,253.516 114.735 C 253.372 114.602,253.665 114.743,254.167 115.047 C 254.668 115.351,255.247 115.869,255.454 116.198 M267.542 115.603 C 266.702 116.164,265.612 117.161,265.120 117.817 C 264.278 118.941,263.798 119.406,264.224 118.685 C 265.145 117.126,267.997 114.583,268.824 114.583 C 268.959 114.583,268.382 115.042,267.542 115.603 M291.853 116.862 C 291.794 117.256,291.745 116.934,291.745 116.146 C 291.745 115.358,291.794 115.036,291.853 115.430 C 291.913 115.824,291.913 116.468,291.853 116.862 M179.354 116.858 C 179.294 117.254,179.243 116.992,179.241 116.276 C 179.239 115.560,179.288 115.236,179.350 115.556 C 179.412 115.877,179.413 116.463,179.354 116.858 M202.083 115.229 C 202.083 115.631,202.960 117.448,203.153 117.448 C 203.485 117.448,203.450 117.293,202.859 116.135 C 202.393 115.221,202.083 114.860,202.083 115.229 M196.242 117.212 C 195.891 117.986,195.596 118.524,195.588 118.408 C 195.565 118.090,196.670 115.594,196.783 115.707 C 196.837 115.761,196.594 116.438,196.242 117.212 M248.165 116.952 C 247.761 117.100,246.640 117.106,245.300 116.966 L 243.099 116.736 245.964 116.722 C 248.029 116.712,248.643 116.776,248.165 116.952 M273.824 116.912 C 270.973 117.177,269.253 118.223,267.371 120.836 C 266.922 121.459,266.922 121.451,267.371 120.610 C 268.614 118.283,271.361 116.695,274.089 116.725 L 275.651 116.743 273.824 116.912 M227.760 117.423 C 229.143 118.051,229.921 119.170,230.073 120.746 L 230.194 122.005 229.931 120.744 C 229.329 117.864,228.450 117.371,223.568 117.172 L 219.922 117.023 223.307 116.981 C 226.115 116.946,226.875 117.021,227.760 117.423 M251.497 117.445 C 251.963 117.729,252.344 118.035,252.344 118.125 C 252.344 118.215,252.032 118.085,251.650 117.835 C 251.269 117.585,250.653 117.288,250.283 117.176 C 249.751 117.015,249.719 116.967,250.130 116.950 C 250.417 116.939,251.032 117.161,251.497 117.445 M277.206 117.298 C 278.402 117.798,280.399 119.675,281.012 120.876 C 281.783 122.388,281.596 122.424,280.739 120.929 C 279.818 119.323,278.184 117.867,276.723 117.348 C 276.133 117.139,275.801 116.959,275.985 116.948 C 276.169 116.936,276.718 117.094,277.206 117.298 M303.838 117.478 C 304.953 118.018,305.961 119.126,305.634 119.453 C 305.543 119.544,305.469 119.474,305.469 119.299 C 305.469 119.123,305.351 119.052,305.208 119.141 C 305.033 119.249,305.033 119.464,305.208 119.790 C 306.285 121.803,304.856 124.107,302.080 124.831 C 300.668 125.200,300.662 125.205,301.563 125.321 C 302.064 125.385,300.951 125.437,299.089 125.437 C 297.227 125.437,296.113 125.379,296.615 125.307 L 297.526 125.177 296.745 125.021 L 295.964 124.865 295.891 121.294 L 295.819 117.722 296.506 117.549 C 296.884 117.455,298.479 117.438,300.051 117.512 C 301.837 117.597,302.816 117.556,302.663 117.403 C 302.526 117.266,300.906 117.193,298.995 117.238 C 297.112 117.282,295.572 117.230,295.572 117.122 C 295.574 116.613,302.682 116.918,303.838 117.478 M276.011 117.580 C 279.719 118.275,282.313 123.146,281.135 127.201 C 278.621 135.849,266.886 134.021,266.886 124.980 C 266.886 119.728,270.750 116.594,276.011 117.580 M219.716 121.386 C 219.707 123.230,219.615 124.740,219.511 124.740 C 219.407 124.740,219.309 123.070,219.294 121.029 C 219.276 118.762,219.356 117.457,219.498 117.675 C 219.627 117.872,219.724 119.541,219.716 121.386 M227.795 118.058 C 230.228 119.330,230.047 123.247,227.503 124.395 C 226.398 124.893,226.390 124.895,225.456 125.002 C 225.017 125.052,225.099 125.117,225.781 125.260 C 226.347 125.380,225.409 125.452,223.307 125.452 C 221.206 125.452,220.268 125.380,220.833 125.260 L 221.745 125.069 220.898 125.034 L 220.052 125.000 220.052 121.192 L 220.052 117.384 223.503 117.501 C 226.059 117.587,227.171 117.732,227.795 118.058 M251.546 118.343 C 253.005 119.741,252.514 121.922,250.569 122.681 C 250.237 122.811,248.509 122.917,246.728 122.917 L 243.490 122.917 243.490 120.157 L 243.490 117.398 247.119 117.488 C 250.727 117.578,250.752 117.583,251.546 118.343 M303.516 117.856 C 303.802 118.067,304.253 118.421,304.517 118.643 C 304.781 118.866,305.053 118.993,305.120 118.925 C 305.317 118.728,304.174 117.770,303.558 117.615 C 303.003 117.476,303.002 117.479,303.516 117.856 M309.529 120.821 L 309.597 122.786 309.402 120.964 C 309.294 119.961,309.122 118.848,309.018 118.490 C 308.847 117.900,308.859 117.886,309.145 118.347 C 309.318 118.627,309.491 119.740,309.529 120.821 M201.059 121.289 C 201.186 121.611,201.237 121.875,201.173 121.875 C 201.001 121.875,199.739 119.047,199.745 118.677 C 199.751 118.384,200.517 119.908,201.059 121.289 M204.032 119.870 C 204.253 120.400,204.375 120.833,204.304 120.833 C 204.177 120.833,203.385 119.086,203.385 118.805 C 203.385 118.514,203.641 118.936,204.032 119.870 M256.260 121.682 C 255.936 122.766,254.385 124.479,253.729 124.479 C 253.472 124.479,253.644 124.251,254.169 123.893 C 255.521 122.974,256.060 122.053,256.223 120.388 C 256.342 119.181,256.389 119.062,256.462 119.792 C 256.512 120.293,256.422 121.144,256.260 121.682 M179.357 121.804 C 179.300 122.344,179.253 121.966,179.252 120.964 C 179.251 119.961,179.297 119.519,179.355 119.981 C 179.412 120.443,179.413 121.264,179.357 121.804 M194.953 120.224 C 194.489 121.081,194.412 120.921,194.799 119.903 C 194.946 119.515,195.131 119.263,195.210 119.342 C 195.289 119.421,195.173 119.818,194.953 120.224 M200.269 121.025 C 200.790 122.172,201.135 122.666,201.269 122.450 C 201.413 122.216,201.560 122.314,201.778 122.791 C 202.191 123.699,202.149 123.937,201.684 123.323 C 201.191 122.670,201.190 123.247,201.683 124.200 C 202.252 125.300,202.829 127.080,202.640 127.151 C 202.549 127.186,201.038 127.177,199.283 127.133 L 196.092 127.053 196.261 126.378 C 196.380 125.905,196.341 125.759,196.132 125.888 C 195.791 126.099,195.765 126.002,196.000 125.390 C 196.123 125.069,196.218 125.040,196.365 125.278 C 196.534 125.552,197.656 123.849,197.656 123.318 C 197.656 122.844,197.140 123.310,196.899 124.001 C 196.741 124.453,196.551 124.763,196.476 124.688 C 196.401 124.613,196.832 123.422,197.433 122.042 C 198.034 120.662,198.573 119.580,198.630 119.637 C 198.687 119.694,198.476 120.342,198.160 121.076 C 197.844 121.811,197.645 122.471,197.717 122.544 C 197.790 122.617,198.175 121.910,198.573 120.973 C 199.451 118.908,199.307 118.903,200.269 121.025 M205.637 123.877 C 205.524 123.989,204.676 121.983,204.706 121.674 C 204.716 121.570,204.953 122.000,205.232 122.629 C 205.512 123.259,205.694 123.820,205.637 123.877 M251.867 122.658 C 250.901 123.464,249.568 123.698,246.224 123.651 L 243.099 123.607 246.745 123.457 C 249.869 123.329,250.521 123.227,251.302 122.743 C 252.445 122.035,252.652 122.004,251.867 122.658 M305.729 123.038 C 305.729 123.279,304.107 125.000,303.879 125.000 C 303.751 125.000,304.085 124.541,304.622 123.980 C 305.645 122.912,305.729 122.840,305.729 123.038 M229.420 123.712 C 229.094 124.320,227.669 125.261,227.083 125.254 C 226.868 125.251,227.181 125.027,227.778 124.756 C 228.376 124.485,228.995 124.019,229.155 123.720 C 229.315 123.421,229.504 123.177,229.576 123.177 C 229.647 123.177,229.577 123.418,229.420 123.712 M192.857 125.025 C 192.505 125.799,192.211 126.337,192.203 126.220 C 192.180 125.902,193.285 123.406,193.398 123.519 C 193.452 123.573,193.208 124.251,192.857 125.025 M266.332 125.716 C 266.273 126.110,266.224 125.788,266.224 125.000 C 266.224 124.212,266.273 123.890,266.332 124.284 C 266.392 124.678,266.392 125.322,266.332 125.716 M232.541 125.409 C 231.935 126.389,229.905 127.869,229.181 127.859 C 228.958 127.856,229.245 127.640,229.818 127.379 C 230.873 126.898,232.813 124.991,232.813 124.435 C 232.813 124.268,232.884 124.204,232.972 124.292 C 233.060 124.380,232.866 124.882,232.541 125.409 M285.857 125.456 C 285.791 125.706,285.738 125.501,285.738 125.000 C 285.738 124.499,285.791 124.294,285.857 124.544 C 285.922 124.795,285.922 125.205,285.857 125.456 M262.680 125.716 C 262.614 125.967,262.560 125.762,262.560 125.260 C 262.560 124.759,262.614 124.554,262.680 124.805 C 262.745 125.055,262.745 125.465,262.680 125.716 M203.366 126.823 C 203.365 127.038,203.194 126.819,202.985 126.337 C 202.775 125.855,202.608 125.387,202.613 125.296 C 202.632 124.957,203.367 126.448,203.366 126.823 M251.042 126.538 C 251.663 126.714,244.302 126.626,243.490 126.448 C 243.275 126.401,244.740 126.361,246.745 126.358 C 248.750 126.356,250.684 126.437,251.042 126.538 M175.599 126.756 C 174.282 126.804,172.055 126.804,170.652 126.757 C 169.248 126.710,170.326 126.671,173.047 126.671 C 175.768 126.671,176.917 126.709,175.599 126.756 M243.161 130.525 C 243.108 131.282,243.065 130.729,243.064 129.297 C 243.063 127.865,243.106 127.245,243.160 127.921 C 243.213 128.596,243.214 129.768,243.161 130.525 M251.693 127.410 C 253.654 128.387,254.099 130.706,252.539 131.818 C 251.755 132.378,251.392 132.428,247.591 132.505 L 243.490 132.588 243.490 129.852 L 243.490 127.116 244.336 127.004 C 245.685 126.825,251.121 127.125,251.693 127.410 M167.969 131.771 L 167.969 136.458 167.253 136.423 C 166.639 136.392,166.620 136.371,167.122 136.275 C 167.703 136.163,167.708 136.123,167.708 131.623 C 167.708 129.126,167.767 127.083,167.839 127.083 C 167.910 127.083,167.969 129.193,167.969 131.771 M191.567 128.037 C 191.347 128.443,191.162 128.694,191.156 128.593 C 191.139 128.283,191.744 127.074,191.860 127.189 C 191.919 127.249,191.788 127.630,191.567 128.037 M179.360 133.659 C 179.312 134.840,179.273 133.874,179.273 131.510 C 179.273 129.147,179.312 128.180,179.360 129.362 C 179.409 130.544,179.409 132.477,179.360 133.659 M199.630 127.806 C 197.492 127.846,195.652 127.788,195.540 127.676 C 195.429 127.565,197.177 127.532,199.426 127.603 L 203.516 127.733 199.630 127.806 M223.642 128.576 C 222.966 128.630,221.794 128.630,221.037 128.578 C 220.281 128.525,220.833 128.481,222.266 128.481 C 223.698 128.480,224.317 128.523,223.642 128.576 M229.957 129.831 C 231.059 131.433,230.736 131.293,229.563 129.660 C 229.037 128.929,228.732 128.408,228.884 128.502 C 229.036 128.596,229.519 129.194,229.957 129.831 M307.609 132.161 C 308.661 133.594,309.789 135.146,310.117 135.612 L 310.713 136.458 308.677 136.412 L 306.641 136.366 308.423 136.217 L 310.205 136.068 307.883 132.943 C 306.605 131.224,305.355 129.466,305.104 129.036 L 304.647 128.255 305.172 128.906 C 305.461 129.264,306.557 130.729,307.609 132.161 M190.590 130.434 C 190.282 131.176,189.987 131.740,189.934 131.688 C 189.882 131.635,190.091 130.985,190.399 130.243 C 190.708 129.501,191.003 128.937,191.055 128.989 C 191.108 129.042,190.899 129.692,190.590 130.434 M227.564 132.487 C 228.170 133.382,228.611 134.115,228.545 134.115 C 228.381 134.115,225.000 129.251,225.000 129.016 C 225.000 128.808,225.892 130.015,227.564 132.487 M269.356 131.593 C 270.099 132.253,270.111 132.283,269.467 131.889 C 268.742 131.446,267.188 129.529,267.188 129.079 C 267.188 128.944,267.489 129.289,267.858 129.846 C 268.227 130.404,268.901 131.190,269.356 131.593 M219.532 132.049 L 219.342 133.724 219.329 131.380 C 219.320 129.882,219.389 129.278,219.518 129.705 C 219.630 130.073,219.636 131.127,219.532 132.049 M254.086 130.404 C 254.020 130.654,253.967 130.449,253.967 129.948 C 253.967 129.447,254.020 129.242,254.086 129.492 C 254.151 129.743,254.151 130.153,254.086 130.404 M284.631 130.477 C 284.212 131.261,284.051 130.968,284.443 130.133 C 284.620 129.754,284.803 129.551,284.848 129.682 C 284.893 129.812,284.795 130.170,284.631 130.477 M280.488 130.173 C 280.230 130.654,278.489 132.292,278.235 132.292 C 278.110 132.292,280.515 129.740,280.673 129.704 C 280.714 129.695,280.631 129.906,280.488 130.173 M143.584 130.739 C 140.758 131.299,137.107 133.817,131.857 138.827 C 121.477 148.733,116.284 151.466,107.580 151.606 C 105.893 151.633,104.945 151.750,104.940 151.931 C 104.936 152.086,104.813 152.008,104.667 151.758 C 104.521 151.507,104.285 151.302,104.144 151.302 C 103.610 151.302,104.862 152.276,105.931 152.692 C 112.279 155.165,121.585 155.137,127.214 152.628 C 131.864 150.555,134.258 149.055,136.982 146.507 C 139.002 144.617,141.272 141.609,139.535 143.124 C 139.104 143.499,139.143 143.383,139.696 142.643 C 140.098 142.106,140.495 141.667,140.578 141.667 C 140.661 141.667,140.589 141.807,140.417 141.979 C 140.056 142.340,140.007 142.708,140.318 142.708 C 141.484 142.708,145.962 132.306,145.413 130.875 C 145.242 130.431,145.167 130.426,143.584 130.739 M202.292 130.923 C 200.904 130.970,198.560 130.970,197.084 130.924 C 195.608 130.877,196.745 130.839,199.609 130.839 C 202.474 130.838,203.681 130.876,202.292 130.923 M205.711 132.422 C 205.711 132.565,205.543 132.389,205.339 132.031 C 205.134 131.673,204.966 131.263,204.966 131.120 C 204.966 130.977,205.134 131.152,205.339 131.510 C 205.543 131.868,205.711 132.279,205.711 132.422 M253.493 131.796 C 252.936 132.412,251.764 133.076,251.250 133.067 C 251.064 133.064,251.403 132.838,252.004 132.565 C 252.605 132.293,253.245 131.832,253.427 131.541 C 253.608 131.251,253.809 131.066,253.873 131.130 C 253.937 131.194,253.766 131.494,253.493 131.796 M209.502 132.454 C 209.903 133.414,209.993 133.777,209.774 133.559 C 209.555 133.340,208.844 131.510,208.977 131.510 C 209.049 131.510,209.285 131.935,209.502 132.454 M272.266 132.937 C 273.054 133.156,273.311 133.300,272.917 133.304 C 272.559 133.307,271.914 133.149,271.484 132.952 C 270.481 132.493,270.655 132.489,272.266 132.937 M233.563 134.882 L 234.669 136.458 233.806 136.432 C 233.077 136.410,233.037 136.380,233.545 136.237 C 234.140 136.069,234.135 136.050,233.044 134.527 C 232.437 133.679,232.057 133.058,232.199 133.146 C 232.341 133.233,232.955 134.015,233.563 134.882 M248.752 133.267 C 247.707 133.316,246.066 133.316,245.106 133.266 C 244.145 133.216,245.000 133.175,247.005 133.176 C 249.010 133.176,249.796 133.217,248.752 133.267 M257.031 133.194 C 257.031 133.716,255.186 135.230,253.956 135.719 C 252.577 136.266,252.048 136.310,246.354 136.345 L 240.234 136.383 246.354 136.203 C 250.461 136.082,252.774 135.907,253.385 135.672 C 254.824 135.118,255.912 134.402,256.365 133.711 C 256.752 133.120,257.031 132.904,257.031 133.194 M211.187 136.263 C 211.193 136.370,210.260 136.458,209.115 136.458 C 207.969 136.458,207.031 136.370,207.031 136.263 C 207.030 136.156,207.867 136.107,208.890 136.156 C 210.907 136.251,210.828 136.329,210.300 134.766 C 210.203 134.479,210.361 134.655,210.650 135.156 C 210.939 135.658,211.181 136.156,211.187 136.263 M268.490 135.144 C 268.704 135.289,268.747 135.410,268.584 135.413 C 268.420 135.415,268.010 135.176,267.672 134.881 C 267.049 134.338,267.531 134.493,268.490 135.144 M278.776 135.814 C 276.662 136.774,272.502 136.959,270.364 136.187 C 269.020 135.702,269.523 135.656,271.235 136.107 C 273.060 136.588,276.372 136.461,277.995 135.847 C 279.290 135.358,279.831 135.334,278.776 135.814 M219.531 136.198 C 219.531 136.348,218.844 136.440,217.904 136.415 L 216.276 136.371 217.839 136.198 C 218.698 136.103,219.430 136.005,219.466 135.981 C 219.502 135.957,219.531 136.055,219.531 136.198 M181.576 136.382 C 181.253 136.444,180.726 136.444,180.404 136.382 C 180.081 136.320,180.345 136.269,180.990 136.269 C 181.634 136.269,181.898 136.320,181.576 136.382 M293.685 136.377 C 293.434 136.443,293.024 136.443,292.773 136.377 C 292.523 136.312,292.728 136.258,293.229 136.258 C 293.730 136.258,293.936 136.312,293.685 136.377 M138.010 144.943 C 137.371 145.600,136.263 146.617,135.547 147.205 C 134.831 147.792,135.299 147.261,136.589 146.024 C 139.117 143.599,139.891 143.010,138.010 144.943 M128.385 151.693 C 128.027 151.897,127.617 152.065,127.474 152.065 C 127.331 152.065,127.507 151.897,127.865 151.693 C 128.223 151.488,128.633 151.321,128.776 151.321 C 128.919 151.321,128.743 151.488,128.385 151.693 M122.526 153.522 C 121.810 153.706,120.872 153.855,120.443 153.853 C 119.977 153.851,120.293 153.717,121.224 153.521 C 123.266 153.091,124.199 153.092,122.526 153.522 M113.101 153.643 C 113.504 153.645,113.771 153.746,113.695 153.868 C 113.554 154.097,110.676 153.743,110.426 153.466 C 110.349 153.381,110.755 153.386,111.328 153.476 C 111.901 153.566,112.699 153.641,113.101 153.643 M117.521 154.097 C 116.916 154.151,115.862 154.152,115.177 154.098 C 114.492 154.044,114.987 153.999,116.276 153.999 C 117.565 153.998,118.125 154.042,117.521 154.097 " stroke="none" fill="#21375a" fill-rule="evenodd"/><path id="path2" d="M116.219 90.556 C 116.903 90.610,117.958 90.609,118.563 90.555 C 119.167 90.500,118.607 90.456,117.318 90.457 C 116.029 90.458,115.534 90.502,116.219 90.556 M111.589 90.885 C 110.506 91.161,111.571 91.173,112.891 90.900 C 113.766 90.719,113.808 90.685,113.151 90.686 C 112.721 90.686,112.018 90.776,111.589 90.885 M107.946 91.650 C 106.945 91.911,105.959 92.060,105.755 91.981 C 105.533 91.896,105.453 91.951,105.556 92.118 C 105.759 92.446,104.240 93.045,103.836 92.795 C 103.685 92.702,103.643 92.753,103.740 92.910 C 103.893 93.159,103.225 93.533,102.474 93.619 C 101.900 93.684,100.669 94.326,98.884 95.491 C 96.732 96.895,96.785 96.856,95.573 97.888 L 94.661 98.664 96.672 100.634 C 98.529 102.453,99.301 102.930,99.523 102.394 C 99.570 102.278,100.195 101.785,100.911 101.299 C 101.628 100.813,102.376 100.256,102.574 100.061 C 102.772 99.867,103.475 99.435,104.136 99.103 C 104.798 98.770,105.788 98.258,106.337 97.964 C 106.887 97.670,107.502 97.493,107.705 97.571 C 107.907 97.648,108.073 97.588,108.073 97.435 C 108.073 97.133,109.737 96.730,110.510 96.845 C 110.813 96.890,110.927 96.808,110.814 96.625 C 110.689 96.424,110.842 96.386,111.306 96.502 C 111.709 96.603,111.979 96.562,111.979 96.399 C 111.979 96.104,112.195 96.066,114.234 96.006 C 114.972 95.984,115.512 95.861,115.432 95.732 C 115.348 95.596,116.641 95.548,118.516 95.617 C 120.292 95.683,121.393 95.655,120.964 95.555 C 117.536 94.760,110.415 95.795,105.738 97.767 C 104.587 98.253,103.710 98.544,103.791 98.414 C 103.871 98.284,103.715 98.177,103.444 98.177 C 103.173 98.177,102.943 98.031,102.933 97.852 C 102.923 97.673,102.831 97.145,102.727 96.680 C 102.586 96.046,102.629 95.831,102.897 95.825 C 103.142 95.819,103.091 95.672,102.734 95.360 C 102.191 94.884,101.872 94.109,102.337 94.397 C 102.484 94.488,102.604 94.449,102.604 94.311 C 102.604 93.982,105.841 92.641,108.615 91.822 C 111.145 91.074,110.648 90.946,107.946 91.650 M97.803 100.846 L 98.568 101.693 97.721 100.928 C 96.932 100.215,96.755 100.000,96.956 100.000 C 97.001 100.000,97.382 100.381,97.803 100.846 M112.923 100.975 C 112.052 101.029,111.231 101.232,111.017 101.446 C 110.592 101.871,110.040 101.961,110.285 101.565 C 110.376 101.418,110.271 101.374,110.040 101.463 C 109.817 101.548,109.635 101.710,109.635 101.822 C 109.635 101.934,109.489 102.020,109.310 102.013 C 108.418 101.980,108.055 102.104,108.228 102.384 C 108.341 102.567,108.300 102.614,108.121 102.504 C 107.820 102.318,106.246 103.003,105.960 103.444 C 105.873 103.579,105.739 103.651,105.662 103.603 C 105.412 103.446,102.346 105.590,102.345 105.923 C 102.343 106.362,105.896 109.896,106.339 109.896 C 106.534 109.896,107.161 109.557,107.733 109.142 C 109.265 108.032,110.148 107.625,112.073 107.142 C 113.024 106.903,113.802 106.623,113.802 106.519 C 113.802 106.415,115.238 106.319,116.992 106.306 C 118.747 106.293,120.475 106.263,120.833 106.240 L 121.484 106.198 120.833 105.990 C 119.451 105.547,115.052 105.716,112.891 106.296 C 111.745 106.603,110.475 106.852,110.069 106.849 C 109.568 106.845,109.443 106.914,109.679 107.064 C 109.925 107.220,109.934 107.285,109.710 107.288 C 109.284 107.293,108.953 106.610,108.731 105.273 C 108.617 104.580,108.410 104.167,108.180 104.167 C 107.978 104.167,107.813 104.049,107.813 103.906 C 107.813 103.763,108.001 103.646,108.231 103.646 C 108.502 103.646,108.595 103.504,108.494 103.242 C 108.405 103.010,108.449 102.905,108.597 102.997 C 108.738 103.084,108.854 103.041,108.854 102.901 C 108.854 102.426,112.921 101.319,116.016 100.952 C 117.007 100.834,114.941 100.849,112.923 100.975 M114.648 110.852 C 114.326 110.919,114.063 111.057,114.063 111.159 C 114.063 111.261,113.747 111.371,113.361 111.403 C 112.975 111.435,112.567 111.607,112.453 111.785 C 112.340 111.963,112.246 112.003,112.244 111.874 C 112.241 111.744,112.005 111.850,111.719 112.109 C 111.432 112.369,111.198 112.501,111.198 112.404 C 111.198 112.307,110.905 112.420,110.547 112.654 C 109.818 113.132,109.696 113.742,110.285 113.968 C 110.499 114.050,110.619 114.206,110.552 114.314 C 110.486 114.422,111.135 115.058,111.997 115.727 C 112.858 116.396,113.508 117.031,113.441 117.140 C 113.374 117.248,113.537 117.336,113.802 117.336 C 114.068 117.336,114.228 117.244,114.158 117.132 C 114.025 116.917,114.403 116.835,115.169 116.913 C 115.420 116.939,115.626 116.865,115.627 116.748 C 115.628 116.632,116.514 116.507,117.596 116.470 C 118.729 116.432,119.501 116.505,119.417 116.641 C 119.336 116.772,119.518 116.814,119.821 116.734 C 120.319 116.604,120.329 116.566,119.926 116.341 C 119.035 115.842,116.493 115.797,115.091 116.256 C 113.818 116.672,112.293 116.266,112.890 115.669 C 112.963 115.596,112.842 115.260,112.620 114.922 C 112.399 114.585,112.290 114.191,112.379 114.048 C 112.467 113.905,112.267 113.566,111.934 113.294 L 111.328 112.801 112.109 112.494 C 114.702 111.475,115.089 111.395,117.448 111.398 C 119.357 111.400,120.343 111.542,121.766 112.020 C 123.057 112.454,123.611 112.544,123.611 112.321 C 123.611 112.145,123.540 112.046,123.452 112.100 C 123.174 112.272,120.569 111.288,120.770 111.087 C 120.876 110.982,120.640 110.976,120.247 111.075 C 119.853 111.174,119.531 111.154,119.531 111.031 C 119.531 110.792,115.626 110.649,114.648 110.852 M122.308 115.842 C 121.544 116.618,121.223 117.101,121.472 117.101 C 121.694 117.101,121.816 117.042,121.744 116.970 C 121.512 116.738,122.456 115.892,122.756 116.064 C 122.916 116.155,122.958 116.131,122.849 116.012 C 122.740 115.892,122.907 115.521,123.220 115.189 C 124.287 114.052,123.552 114.580,122.308 115.842 M137.109 129.550 C 136.966 129.595,135.970 129.772,134.896 129.944 C 130.201 130.695,117.777 135.767,114.844 138.131 C 113.921 138.874,108.233 141.153,105.599 141.835 C 104.023 142.242,102.985 142.612,103.292 142.657 C 103.599 142.701,104.579 142.548,105.469 142.318 C 107.246 141.857,107.895 141.924,106.297 142.403 C 101.454 143.854,97.692 143.682,93.396 141.813 L 92.390 141.375 92.936 142.107 C 93.993 143.524,94.148 143.676,94.728 143.860 C 95.049 143.962,95.313 144.169,95.313 144.320 C 95.313 144.483,95.127 144.451,94.857 144.242 C 94.486 143.955,94.493 143.997,94.897 144.471 C 95.405 145.066,95.624 145.204,95.508 144.857 C 95.472 144.749,95.560 144.634,95.703 144.600 C 95.846 144.566,95.966 144.800,95.968 145.121 C 95.971 145.441,96.118 145.718,96.294 145.736 C 96.470 145.754,96.732 145.783,96.875 145.801 C 97.018 145.819,97.135 145.965,97.135 146.126 C 97.135 146.317,96.978 146.294,96.680 146.061 C 96.269 145.738,96.258 145.747,96.573 146.149 C 96.998 146.691,99.464 148.593,99.625 148.503 C 99.688 148.467,99.951 148.649,100.210 148.907 C 104.768 153.466,115.684 151.904,124.231 145.470 C 126.249 143.951,127.665 142.676,134.579 136.151 C 135.766 135.031,136.846 134.115,136.980 134.115 C 137.113 134.115,137.661 133.676,138.197 133.140 C 138.733 132.604,139.069 132.341,138.944 132.554 C 138.819 132.768,139.033 132.610,139.420 132.202 C 139.841 131.760,140.282 131.523,140.518 131.614 C 140.774 131.712,140.847 131.659,140.726 131.463 C 140.600 131.260,140.685 131.217,140.986 131.333 C 141.232 131.427,141.369 131.401,141.291 131.274 C 141.095 130.958,141.831 130.708,142.360 130.912 C 142.632 131.016,142.730 130.975,142.622 130.801 C 142.528 130.648,142.636 130.452,142.861 130.366 C 143.484 130.127,143.667 130.184,143.229 130.482 C 142.949 130.673,143.133 130.699,143.880 130.575 C 144.923 130.402,145.933 129.988,145.443 129.936 C 145.299 129.921,144.948 129.847,144.661 129.773 C 143.280 129.413,138.524 129.378,138.097 129.724 C 137.796 129.968,137.721 129.977,137.856 129.753 C 138.042 129.442,137.726 129.356,137.109 129.550 M90.885 140.324 C 90.885 140.588,91.120 141.017,91.406 141.276 C 92.004 141.817,92.099 141.507,91.567 140.748 C 91.281 140.340,91.615 140.434,93.195 141.205 C 95.315 142.240,96.808 142.711,96.528 142.258 C 96.437 142.111,95.838 141.859,95.196 141.697 C 94.554 141.536,93.433 141.052,92.706 140.623 C 91.166 139.716,90.885 139.670,90.885 140.324 M92.145 142.155 C 92.336 142.277,92.474 142.477,92.451 142.601 C 92.428 142.724,92.546 142.871,92.714 142.927 C 92.945 143.004,92.947 142.895,92.724 142.478 C 92.562 142.175,92.287 141.929,92.113 141.931 C 91.889 141.934,91.898 141.999,92.145 142.155 M96.875 142.448 C 96.875 142.591,97.139 142.707,97.461 142.704 C 97.935 142.701,97.972 142.652,97.656 142.448 C 97.151 142.122,96.875 142.122,96.875 142.448 M96.938 144.704 C 96.759 144.777,96.678 144.943,96.759 145.074 C 96.839 145.205,96.782 145.313,96.630 145.313 C 96.478 145.313,96.354 145.137,96.354 144.922 C 96.354 144.707,96.559 144.541,96.810 144.552 C 97.085 144.564,97.136 144.625,96.938 144.704 M171.781 147.526 C 171.698 147.741,171.744 147.917,171.883 147.917 C 172.022 147.917,172.137 147.770,172.139 147.591 C 172.142 147.371,172.222 147.389,172.386 147.649 C 172.519 147.859,172.705 147.955,172.798 147.861 C 173.040 147.620,172.692 147.135,172.278 147.135 C 172.087 147.135,171.863 147.311,171.781 147.526 M257.552 147.488 C 257.552 147.610,258.021 147.666,258.594 147.612 C 259.293 147.545,259.635 147.616,259.635 147.829 C 259.635 148.435,260.046 148.396,260.097 147.786 C 260.144 147.210,260.065 147.175,258.850 147.218 C 258.136 147.244,257.552 147.365,257.552 147.488 M263.420 147.383 C 263.207 147.726,265.080 148.045,265.404 147.721 C 265.578 147.547,265.441 147.503,264.994 147.589 C 264.597 147.665,264.323 147.598,264.323 147.426 C 264.323 147.072,263.632 147.039,263.420 147.383 M171.953 150.260 C 171.953 151.048,172.002 151.370,172.062 150.977 C 172.121 150.583,172.121 149.938,172.062 149.544 C 172.002 149.150,171.953 149.473,171.953 150.260 M244.535 149.544 C 244.538 150.018,244.588 150.055,244.792 149.740 C 245.118 149.235,245.118 148.958,244.792 148.958 C 244.648 148.958,244.533 149.222,244.535 149.544 M99.740 149.461 C 99.740 149.604,99.974 149.847,100.260 150.000 C 100.595 150.179,100.781 150.186,100.781 150.018 C 100.781 149.875,100.547 149.632,100.260 149.479 C 99.925 149.300,99.740 149.293,99.740 149.461 M246.494 149.984 C 246.419 150.106,246.540 150.276,246.763 150.361 C 246.986 150.447,247.095 150.635,247.006 150.779 C 246.917 150.924,246.968 151.042,247.120 151.042 C 247.540 151.042,247.449 150.076,247.014 149.909 C 246.803 149.828,246.570 149.862,246.494 149.984 M258.203 150.013 C 257.787 150.203,257.848 150.231,258.509 150.151 C 259.206 150.067,259.320 150.129,259.240 150.547 C 259.122 151.157,259.517 151.204,259.747 150.607 C 260.027 149.877,259.201 149.559,258.203 150.013 M287.067 150.172 C 287.186 150.351,287.207 150.623,287.112 150.776 C 287.018 150.929,287.051 151.022,287.186 150.983 C 287.321 150.944,287.681 151.204,287.987 151.563 C 288.412 152.061,288.502 152.097,288.368 151.715 C 288.248 151.373,288.287 151.275,288.494 151.403 C 288.692 151.525,288.742 151.449,288.639 151.181 C 288.553 150.956,288.334 150.803,288.153 150.842 C 287.972 150.880,287.604 150.672,287.336 150.378 C 287.068 150.085,286.947 149.992,287.067 150.172 M194.118 150.557 C 193.779 150.695,193.971 150.747,194.719 150.720 C 195.324 150.698,195.761 150.622,195.691 150.552 C 195.477 150.338,194.648 150.341,194.118 150.557 M244.088 151.823 C 244.088 152.611,244.137 152.933,244.197 152.539 C 244.257 152.145,244.257 151.501,244.197 151.107 C 244.137 150.713,244.088 151.035,244.088 151.823 M263.281 151.145 C 263.281 151.201,263.740 151.291,264.301 151.345 C 264.862 151.398,265.265 151.352,265.197 151.242 C 265.073 151.042,263.281 150.951,263.281 151.145 M238.105 152.391 C 238.170 153.313,237.881 153.568,237.421 152.995 C 237.302 152.846,237.246 152.949,237.291 153.234 C 237.382 153.810,237.747 153.989,238.222 153.688 C 238.472 153.529,238.490 153.229,238.295 152.455 L 238.037 151.432 238.105 152.391 M295.728 152.043 C 295.638 152.188,295.691 152.386,295.846 152.482 C 296.247 152.729,296.505 152.391,296.171 152.056 C 295.984 151.869,295.838 151.865,295.728 152.043 M307.161 152.300 C 306.908 152.554,307.036 152.865,307.394 152.865 C 307.594 152.865,307.817 152.708,307.890 152.517 C 308.016 152.190,307.443 152.019,307.161 152.300 M245.895 152.558 C 245.570 152.604,245.368 152.744,245.446 152.870 C 245.524 152.996,245.165 153.178,244.649 153.275 C 243.995 153.397,243.794 153.533,243.984 153.723 C 244.174 153.914,244.456 153.905,244.915 153.696 C 245.277 153.532,245.573 153.486,245.573 153.596 C 245.573 153.705,245.807 153.795,246.094 153.795 C 246.380 153.795,246.615 153.644,246.615 153.460 C 246.615 153.074,247.034 153.011,247.252 153.363 C 247.333 153.494,247.252 153.661,247.072 153.733 C 246.885 153.809,246.951 153.874,247.228 153.886 C 247.566 153.900,247.664 153.782,247.554 153.494 C 247.467 153.268,247.396 153.033,247.396 152.973 C 247.396 152.914,247.230 152.865,247.027 152.865 C 246.824 152.865,246.619 152.777,246.571 152.669 C 246.523 152.562,246.219 152.511,245.895 152.558 M258.488 152.553 C 258.215 152.611,257.691 152.937,257.323 153.278 C 256.622 153.929,256.902 153.999,258.181 153.494 C 258.494 153.370,258.619 153.395,258.517 153.560 C 258.421 153.715,258.719 153.836,259.245 153.856 C 259.735 153.875,260.206 153.776,260.292 153.638 C 260.377 153.499,260.277 153.385,260.069 153.385 C 259.861 153.385,259.623 153.207,259.539 152.989 C 259.413 152.659,259.479 152.642,259.932 152.884 C 260.360 153.113,260.453 153.103,260.364 152.837 C 260.250 152.494,259.389 152.363,258.488 152.553 M240.547 153.114 C 240.717 153.766,241.146 154.087,241.146 153.563 C 241.146 153.357,240.979 153.051,240.776 152.882 C 240.472 152.629,240.431 152.671,240.547 153.114 M164.115 153.087 C 163.845 153.258,163.858 153.368,164.177 153.633 C 164.638 154.015,165.486 153.793,165.218 153.359 C 165.092 153.156,164.972 153.175,164.815 153.423 C 164.612 153.743,164.475 153.553,164.552 153.060 C 164.591 152.816,164.537 152.819,164.115 153.087 M193.359 153.229 C 192.417 153.457,192.201 153.584,192.578 153.689 C 193.288 153.888,196.290 153.796,196.518 153.569 C 196.704 153.383,196.251 153.284,195.612 153.372 C 195.418 153.399,195.338 153.295,195.432 153.142 C 195.646 152.795,195.051 152.820,193.359 153.229 M204.877 153.195 C 204.785 153.434,204.845 153.712,205.009 153.814 C 205.173 153.915,205.354 153.860,205.411 153.690 C 205.467 153.521,205.639 153.460,205.792 153.554 C 205.958 153.657,205.994 153.603,205.882 153.421 C 205.778 153.254,205.594 153.178,205.473 153.253 C 205.352 153.327,205.206 153.247,205.148 153.075 C 205.081 152.874,204.983 152.918,204.877 153.195 M263.021 153.051 C 261.839 153.400,261.829 153.409,262.332 153.692 C 262.697 153.896,262.917 153.862,263.228 153.550 C 263.692 153.086,263.606 152.879,263.021 153.051 M172.396 153.362 C 172.396 153.509,172.191 153.557,171.940 153.469 C 171.586 153.344,171.551 153.381,171.785 153.634 C 171.992 153.859,172.225 153.882,172.534 153.709 C 172.838 153.539,172.888 153.399,172.690 153.276 C 172.528 153.176,172.396 153.215,172.396 153.362 M269.271 153.246 C 269.271 153.313,269.508 153.494,269.797 153.649 C 270.413 153.978,271.093 153.710,270.536 153.357 C 270.161 153.120,269.271 153.042,269.271 153.246 M297.135 153.486 C 297.135 153.541,297.487 153.638,297.917 153.701 C 298.346 153.764,298.698 153.719,298.698 153.601 C 298.698 153.482,298.346 153.385,297.917 153.385 C 297.487 153.385,297.135 153.431,297.135 153.486 " stroke="none" fill="#3371ac" fill-rule="evenodd"/><path id="path3" d="M164.443 125.130 C 164.443 131.432,164.477 133.973,164.518 130.777 C 164.559 127.580,164.559 122.424,164.518 119.318 C 164.476 116.213,164.442 118.828,164.443 125.130 M166.205 113.994 L 167.696 114.088 167.774 118.698 L 167.851 123.307 167.910 118.555 L 167.969 113.802 166.341 113.851 L 164.714 113.901 166.205 113.994 M179.167 113.997 C 179.166 114.105,179.782 114.159,180.534 114.118 C 182.996 113.984,183.239 113.881,181.185 113.841 C 180.075 113.820,179.167 113.890,179.167 113.997 M197.178 114.464 C 196.741 115.422,196.825 115.626,197.296 114.756 C 197.517 114.349,197.648 113.968,197.589 113.908 C 197.529 113.849,197.344 114.099,197.178 114.464 M202.012 115.876 C 202.525 117.017,203.056 117.881,203.193 117.797 C 203.344 117.703,203.333 117.576,203.163 117.471 C 202.910 117.315,202.083 115.596,202.083 115.227 C 202.083 115.143,202.230 115.144,202.409 115.231 C 202.588 115.318,202.471 115.193,202.148 114.954 C 201.826 114.715,201.563 114.358,201.563 114.161 C 201.563 113.964,201.454 113.802,201.321 113.802 C 201.188 113.802,201.499 114.735,202.012 115.876 M215.936 115.560 L 215.986 117.318 216.078 115.695 L 216.170 114.073 221.562 113.997 L 226.953 113.921 221.419 113.862 L 215.885 113.802 215.936 115.560 M245.573 114.071 C 249.082 114.162,252.246 114.312,252.604 114.405 C 252.962 114.498,252.786 114.410,252.214 114.208 C 251.423 113.930,249.729 113.850,245.182 113.874 L 239.193 113.907 245.573 114.071 M269.922 114.183 C 268.895 114.654,269.127 114.662,270.573 114.206 C 271.217 114.003,271.510 113.834,271.224 113.831 C 270.938 113.828,270.352 113.987,269.922 114.183 M291.666 113.997 C 291.666 114.105,293.336 114.162,295.377 114.125 C 302.339 113.999,303.001 113.907,297.331 113.854 C 294.215 113.826,291.666 113.890,291.666 113.997 M304.167 114.432 C 306.178 115.007,306.830 115.354,307.770 116.351 C 308.292 116.904,308.550 117.072,308.374 116.742 C 307.730 115.540,305.000 114.034,303.548 114.080 C 303.244 114.090,303.522 114.248,304.167 114.432 M230.078 115.015 C 230.508 115.241,231.269 115.793,231.770 116.241 L 232.681 117.057 231.900 116.188 C 231.164 115.368,229.967 114.571,229.505 114.594 C 229.391 114.599,229.648 114.789,230.078 115.015 M253.516 114.735 C 255.196 116.288,255.793 116.738,255.454 116.198 C 255.247 115.869,254.668 115.351,254.167 115.047 C 253.665 114.743,253.372 114.602,253.516 114.735 M267.415 114.714 C 267.397 114.785,267.365 114.932,267.344 115.039 C 267.323 115.146,266.693 115.858,265.944 116.619 C 264.754 117.830,263.861 119.010,264.135 119.010 C 264.185 119.010,264.629 118.473,265.120 117.817 C 265.612 117.161,266.718 116.147,267.578 115.564 C 269.013 114.590,269.043 114.516,267.796 115.018 C 267.503 115.136,267.423 115.094,267.551 114.888 C 267.654 114.720,267.674 114.583,267.593 114.583 C 267.513 114.583,267.433 114.642,267.415 114.714 M279.427 114.645 C 279.427 114.706,280.011 115.134,280.725 115.597 C 282.137 116.512,283.483 118.028,284.331 119.661 C 284.629 120.234,284.878 120.611,284.884 120.497 C 284.910 120.036,283.843 118.286,282.848 117.157 C 282.265 116.496,281.843 115.881,281.910 115.790 C 281.977 115.699,281.957 115.679,281.867 115.746 C 281.776 115.813,281.190 115.567,280.565 115.201 C 279.939 114.834,279.427 114.584,279.427 114.645 M291.745 116.146 C 291.745 116.934,291.794 117.256,291.853 116.862 C 291.913 116.468,291.913 115.824,291.853 115.430 C 291.794 115.036,291.745 115.358,291.745 116.146 M179.241 116.276 C 179.243 116.992,179.294 117.254,179.354 116.858 C 179.413 116.463,179.412 115.877,179.350 115.556 C 179.288 115.236,179.239 115.560,179.241 116.276 M196.129 116.902 C 195.361 118.687,195.455 118.945,196.242 117.212 C 196.594 116.438,196.837 115.761,196.783 115.707 C 196.730 115.653,196.435 116.191,196.129 116.902 M245.300 116.966 C 246.640 117.106,247.761 117.100,248.165 116.952 C 248.643 116.776,248.029 116.712,245.964 116.722 L 243.099 116.736 245.300 116.966 M271.426 117.097 C 270.128 117.557,268.032 119.373,267.371 120.610 C 266.922 121.451,266.922 121.459,267.371 120.836 C 269.253 118.223,270.973 117.177,273.824 116.912 L 275.651 116.743 274.089 116.725 C 273.229 116.716,272.031 116.883,271.426 117.097 M223.568 117.172 C 228.450 117.371,229.329 117.864,229.931 120.744 L 230.194 122.005 230.073 120.746 C 229.791 117.811,228.189 116.920,223.307 116.981 L 219.922 117.023 223.568 117.172 M250.283 117.176 C 250.653 117.288,251.269 117.585,251.650 117.835 C 252.032 118.085,252.344 118.215,252.344 118.125 C 252.344 117.823,250.658 116.929,250.130 116.950 C 249.719 116.967,249.751 117.015,250.283 117.176 M276.723 117.348 C 278.184 117.867,279.818 119.323,280.739 120.929 C 281.596 122.424,281.783 122.388,281.012 120.876 C 280.126 119.140,277.223 116.871,275.985 116.948 C 275.801 116.959,276.133 117.139,276.723 117.348 M298.828 117.117 C 300.690 117.159,302.389 117.270,302.604 117.363 C 303.100 117.579,303.303 117.635,303.727 117.676 C 304.268 117.727,305.238 118.752,305.044 119.066 C 304.938 119.237,304.988 119.277,305.168 119.165 C 305.333 119.063,305.469 119.123,305.469 119.299 C 305.469 119.474,305.543 119.544,305.634 119.453 C 305.961 119.126,304.953 118.018,303.838 117.478 C 302.825 116.987,302.303 116.933,299.071 116.984 L 295.443 117.040 298.828 117.117 M219.294 121.029 C 219.309 123.070,219.407 124.740,219.511 124.740 C 219.786 124.740,219.774 118.098,219.498 117.675 C 219.356 117.457,219.276 118.762,219.294 121.029 M296.680 117.627 C 296.930 117.693,297.340 117.693,297.591 117.627 C 297.842 117.562,297.637 117.508,297.135 117.508 C 296.634 117.508,296.429 117.562,296.680 117.627 M309.018 118.490 C 309.122 118.848,309.294 119.961,309.402 120.964 L 309.597 122.786 309.529 120.821 C 309.491 119.740,309.318 118.627,309.145 118.347 C 308.859 117.886,308.847 117.900,309.018 118.490 M199.745 118.677 C 199.739 119.047,201.001 121.875,201.173 121.875 C 201.309 121.875,201.040 121.162,200.290 119.531 C 199.994 118.887,199.748 118.502,199.745 118.677 M203.385 118.805 C 203.385 119.086,204.177 120.833,204.304 120.833 C 204.375 120.833,204.253 120.400,204.032 119.870 C 203.641 118.936,203.385 118.514,203.385 118.805 M256.227 120.388 C 256.059 122.053,255.518 122.976,254.169 123.893 C 253.658 124.241,253.477 124.479,253.722 124.479 C 253.950 124.479,254.210 124.359,254.301 124.212 C 254.392 124.065,254.660 123.977,254.897 124.017 C 255.133 124.056,255.332 123.971,255.337 123.828 C 255.343 123.685,255.616 123.018,255.945 122.346 C 256.356 121.505,256.516 120.775,256.460 120.002 C 256.382 118.917,256.374 118.930,256.227 120.388 M179.252 120.964 C 179.253 121.966,179.300 122.344,179.357 121.804 C 179.413 121.264,179.412 120.443,179.355 119.981 C 179.297 119.519,179.251 119.961,179.252 120.964 M194.799 119.903 C 194.412 120.921,194.489 121.081,194.953 120.224 C 195.173 119.818,195.289 119.421,195.210 119.342 C 195.131 119.263,194.946 119.515,194.799 119.903 M197.433 122.042 C 196.832 123.422,196.401 124.613,196.476 124.688 C 196.551 124.763,196.741 124.453,196.899 124.001 C 197.057 123.548,197.292 123.177,197.421 123.177 C 197.551 123.177,197.656 122.958,197.656 122.689 C 197.656 122.421,197.900 121.650,198.199 120.975 C 198.497 120.300,198.693 119.700,198.634 119.641 C 198.575 119.582,198.034 120.662,197.433 122.042 M204.706 121.674 C 204.676 121.983,205.524 123.989,205.637 123.877 C 205.694 123.820,205.512 123.259,205.232 122.629 C 204.953 122.000,204.716 121.570,204.706 121.674 M201.205 122.533 C 201.109 122.785,201.091 123.053,201.166 123.128 C 201.241 123.203,201.302 123.163,201.302 123.041 C 201.302 122.918,201.474 123.045,201.684 123.323 C 202.159 123.950,202.185 123.524,201.723 122.691 C 201.419 122.142,201.362 122.124,201.205 122.533 M251.302 122.743 C 250.521 123.227,249.869 123.329,246.745 123.457 L 243.099 123.607 246.224 123.651 C 249.568 123.698,250.901 123.464,251.867 122.658 C 252.652 122.004,252.445 122.035,251.302 122.743 M170.703 123.140 L 172.526 123.287 170.313 123.444 C 168.819 123.550,169.921 123.610,173.698 123.629 C 176.777 123.644,179.180 123.615,179.036 123.564 C 178.543 123.387,175.384 123.166,172.135 123.080 C 170.345 123.033,169.701 123.060,170.703 123.140 M304.622 123.980 C 304.085 124.541,303.751 125.000,303.879 125.000 C 304.107 125.000,305.729 123.279,305.729 123.038 C 305.729 122.840,305.645 122.912,304.622 123.980 M229.155 123.720 C 228.995 124.019,228.376 124.485,227.778 124.756 C 227.181 125.027,226.868 125.251,227.083 125.254 C 227.669 125.261,229.094 124.320,229.420 123.712 C 229.577 123.418,229.647 123.177,229.576 123.177 C 229.504 123.177,229.315 123.421,229.155 123.720 M192.744 124.715 C 191.976 126.500,192.070 126.757,192.857 125.025 C 193.208 124.251,193.452 123.573,193.398 123.519 C 193.344 123.466,193.050 124.004,192.744 124.715 M266.224 125.000 C 266.224 125.788,266.273 126.110,266.332 125.716 C 266.392 125.322,266.392 124.678,266.332 124.284 C 266.273 123.890,266.224 124.212,266.224 125.000 M308.203 125.209 C 307.640 126.092,307.026 126.633,306.000 127.153 C 304.586 127.869,304.583 127.873,305.518 127.804 C 306.036 127.766,306.413 127.659,306.357 127.568 C 306.219 127.343,307.614 126.426,307.943 126.526 C 308.086 126.570,308.125 126.528,308.030 126.433 C 307.935 126.338,308.140 125.843,308.486 125.333 C 309.024 124.540,309.280 123.922,309.049 123.972 C 309.014 123.980,308.633 124.537,308.203 125.209 M205.748 124.349 C 205.748 125.059,206.427 125.854,206.615 125.364 C 206.716 125.101,206.710 124.974,206.603 125.081 C 206.495 125.189,206.259 125.009,206.077 124.683 C 205.896 124.356,205.748 124.206,205.748 124.349 M232.813 124.435 C 232.813 124.991,230.873 126.898,229.818 127.379 C 229.245 127.640,228.958 127.856,229.181 127.859 C 230.328 127.875,233.537 124.856,232.972 124.292 C 232.884 124.204,232.813 124.268,232.813 124.435 M285.738 125.000 C 285.738 125.501,285.791 125.706,285.857 125.456 C 285.922 125.205,285.922 124.795,285.857 124.544 C 285.791 124.294,285.738 124.499,285.738 125.000 M262.560 125.260 C 262.560 125.762,262.614 125.967,262.680 125.716 C 262.745 125.465,262.745 125.055,262.680 124.805 C 262.614 124.554,262.560 124.759,262.560 125.260 M196.000 125.390 C 195.779 125.965,195.775 125.955,196.224 125.955 C 196.666 125.955,196.704 125.804,196.386 125.304 C 196.211 125.027,196.133 125.044,196.000 125.390 M220.833 125.260 C 220.265 125.380,221.195 125.454,223.307 125.457 C 225.750 125.460,226.403 125.401,225.651 125.245 C 224.405 124.988,222.095 124.995,220.833 125.260 M296.615 125.260 C 296.046 125.380,296.976 125.454,299.089 125.457 C 301.531 125.460,302.184 125.401,301.432 125.245 C 300.186 124.988,297.876 124.995,296.615 125.260 M202.613 125.296 C 202.608 125.387,202.775 125.855,202.985 126.337 C 203.194 126.819,203.365 127.038,203.366 126.823 C 203.367 126.448,202.632 124.957,202.613 125.296 M255.117 125.913 C 255.712 126.269,256.442 126.942,256.740 127.408 C 257.039 127.874,257.281 128.138,257.279 127.995 C 257.277 127.852,257.107 127.512,256.901 127.240 C 256.695 126.969,256.601 126.617,256.691 126.459 C 256.781 126.301,256.763 126.254,256.651 126.355 C 256.539 126.456,256.024 126.251,255.507 125.899 C 254.990 125.548,254.447 125.262,254.302 125.263 C 254.156 125.264,254.523 125.557,255.117 125.913 M243.490 126.448 C 244.302 126.626,251.663 126.714,251.042 126.538 C 250.684 126.437,248.750 126.356,246.745 126.358 C 244.740 126.361,243.275 126.401,243.490 126.448 M170.652 126.757 C 172.055 126.804,174.282 126.804,175.599 126.756 C 176.917 126.709,175.768 126.671,173.047 126.671 C 170.326 126.671,169.248 126.710,170.652 126.757 M207.075 127.422 C 207.339 128.038,207.423 128.085,207.624 127.728 C 207.754 127.495,207.791 127.235,207.706 127.151 C 207.621 127.066,207.552 127.156,207.552 127.350 C 207.552 127.581,207.415 127.529,207.157 127.198 C 206.792 126.731,206.786 126.748,207.075 127.422 M243.064 129.297 C 243.065 130.729,243.108 131.282,243.161 130.525 C 243.214 129.768,243.213 128.596,243.160 127.921 C 243.106 127.245,243.063 127.865,243.064 129.297 M245.638 127.009 C 246.032 127.069,246.676 127.069,247.070 127.009 C 247.464 126.950,247.142 126.901,246.354 126.901 C 245.566 126.901,245.244 126.950,245.638 127.009 M167.708 131.623 C 167.708 136.123,167.703 136.163,167.122 136.275 C 166.620 136.371,166.639 136.392,167.253 136.423 L 167.969 136.458 167.969 131.771 C 167.969 129.193,167.910 127.083,167.839 127.083 C 167.767 127.083,167.708 129.126,167.708 131.623 M175.459 127.268 C 175.783 127.330,176.251 127.327,176.500 127.262 C 176.749 127.197,176.484 127.146,175.911 127.149 C 175.339 127.152,175.135 127.205,175.459 127.268 M191.449 127.746 C 191.012 128.703,191.095 128.907,191.567 128.037 C 191.788 127.630,191.919 127.249,191.860 127.189 C 191.800 127.130,191.615 127.380,191.449 127.746 M179.273 131.510 C 179.273 133.874,179.312 134.840,179.360 133.659 C 179.409 132.477,179.409 130.544,179.360 129.362 C 179.312 128.180,179.273 129.147,179.273 131.510 M197.461 127.798 C 198.571 127.847,200.387 127.847,201.497 127.798 C 202.607 127.749,201.699 127.709,199.479 127.709 C 197.259 127.709,196.351 127.749,197.461 127.798 M221.037 128.578 C 221.794 128.630,222.966 128.630,223.642 128.576 C 224.317 128.523,223.698 128.480,222.266 128.481 C 220.833 128.481,220.281 128.525,221.037 128.578 M229.563 129.660 C 230.088 130.391,230.571 130.990,230.636 130.990 C 230.815 130.990,229.201 128.698,228.884 128.502 C 228.732 128.408,229.037 128.929,229.563 129.660 M298.088 128.579 C 300.020 128.641,300.769 128.759,300.869 129.018 C 300.943 129.214,301.599 130.206,302.325 131.224 C 303.672 133.111,303.879 133.508,303.345 133.178 C 303.157 133.062,303.115 133.107,303.233 133.297 C 303.337 133.465,303.518 133.542,303.636 133.469 C 303.754 133.396,304.303 134.038,304.855 134.895 C 305.408 135.752,305.950 136.455,306.061 136.456 C 306.173 136.457,305.661 135.609,304.925 134.570 C 304.189 133.532,302.938 131.715,302.145 130.534 L 300.703 128.385 298.073 128.440 L 295.443 128.495 298.088 128.579 M305.096 129.036 C 305.351 129.466,306.605 131.224,307.883 132.943 L 310.205 136.068 308.423 136.217 L 306.641 136.366 308.677 136.412 L 310.713 136.458 310.158 135.679 C 309.852 135.250,309.687 134.763,309.789 134.597 C 309.900 134.417,309.863 134.365,309.697 134.467 C 309.337 134.690,305.673 129.737,305.902 129.336 C 305.996 129.171,305.981 129.119,305.869 129.221 C 305.756 129.322,305.432 129.146,305.148 128.830 L 304.631 128.255 305.096 129.036 M263.177 129.167 C 263.412 130.065,264.009 131.227,264.733 132.194 C 265.068 132.642,265.289 133.082,265.223 133.171 C 265.158 133.260,265.184 133.273,265.281 133.199 C 265.379 133.126,265.816 133.390,266.252 133.785 C 266.688 134.181,266.482 133.885,265.793 133.126 C 265.104 132.368,264.195 131.020,263.773 130.132 C 263.351 129.243,263.083 128.809,263.177 129.167 M190.399 130.243 C 190.091 130.985,189.882 131.635,189.934 131.688 C 189.987 131.740,190.282 131.176,190.590 130.434 C 190.899 129.692,191.108 129.042,191.055 128.989 C 191.003 128.937,190.708 129.501,190.399 130.243 M225.000 129.112 C 225.000 129.268,225.117 129.469,225.260 129.557 C 225.404 129.646,225.521 129.835,225.521 129.979 C 225.521 130.122,225.386 130.155,225.220 130.053 C 225.032 129.937,224.990 129.982,225.108 130.172 C 225.212 130.340,225.392 130.418,225.509 130.346 C 225.625 130.274,226.327 131.092,227.069 132.165 C 227.810 133.237,228.473 134.115,228.541 134.115 C 228.609 134.115,228.170 133.382,227.564 132.487 C 225.724 129.767,225.000 128.814,225.000 129.112 M267.188 129.079 C 267.188 129.529,268.742 131.446,269.467 131.889 C 270.111 132.283,270.099 132.253,269.356 131.593 C 268.901 131.190,268.227 130.404,267.858 129.846 C 267.489 129.289,267.188 128.944,267.188 129.079 M219.329 131.380 L 219.342 133.724 219.532 132.049 C 219.636 131.127,219.630 130.073,219.518 129.705 C 219.389 129.278,219.320 129.882,219.329 131.380 M253.967 129.948 C 253.967 130.449,254.020 130.654,254.086 130.404 C 254.151 130.153,254.151 129.743,254.086 129.492 C 254.020 129.242,253.967 129.447,253.967 129.948 M284.535 129.883 C 284.447 130.133,284.313 130.465,284.237 130.621 C 284.162 130.776,284.268 130.903,284.473 130.903 C 284.697 130.903,284.787 130.747,284.697 130.513 C 284.605 130.275,284.656 130.190,284.827 130.296 C 285.006 130.406,285.058 130.280,284.971 129.948 C 284.804 129.310,284.741 129.300,284.535 129.883 M279.351 131.006 C 278.664 131.713,278.162 132.292,278.235 132.292 C 278.489 132.292,280.230 130.654,280.488 130.173 C 280.855 129.487,280.754 129.561,279.351 131.006 M197.084 130.924 C 198.560 130.970,200.904 130.970,202.292 130.923 C 203.681 130.876,202.474 130.838,199.609 130.839 C 196.745 130.839,195.608 130.877,197.084 130.924 M204.966 131.120 C 204.966 131.263,205.134 131.673,205.339 132.031 C 205.543 132.389,205.711 132.565,205.711 132.422 C 205.711 132.279,205.543 131.868,205.339 131.510 C 205.134 131.152,204.966 130.977,204.966 131.120 M253.427 131.541 C 253.245 131.832,252.605 132.293,252.004 132.565 C 251.403 132.838,251.064 133.064,251.250 133.067 C 252.036 133.080,254.215 131.472,253.873 131.130 C 253.809 131.066,253.608 131.251,253.427 131.541 M282.422 132.943 C 281.563 133.823,280.566 134.745,280.208 134.991 C 279.655 135.372,279.687 135.369,280.425 134.972 C 280.902 134.715,281.898 133.862,282.638 133.077 C 283.379 132.291,284.063 131.647,284.158 131.644 C 284.253 131.642,284.400 131.572,284.484 131.489 C 284.567 131.405,284.489 131.338,284.310 131.340 C 284.131 131.341,283.281 132.063,282.422 132.943 M209.250 132.474 C 209.640 133.408,209.896 133.830,209.896 133.539 C 209.896 133.258,209.105 131.510,208.977 131.510 C 208.906 131.510,209.028 131.944,209.250 132.474 M271.484 132.952 C 271.914 133.149,272.559 133.307,272.917 133.304 C 273.311 133.300,273.054 133.156,272.266 132.937 C 270.655 132.489,270.481 132.493,271.484 132.952 M233.044 134.527 C 234.135 136.050,234.140 136.069,233.545 136.237 C 233.037 136.380,233.077 136.410,233.806 136.432 L 234.669 136.458 233.563 134.882 C 232.955 134.015,232.341 133.233,232.199 133.146 C 232.057 133.058,232.437 133.679,233.044 134.527 M245.106 133.266 C 246.066 133.316,247.707 133.316,248.752 133.267 C 249.796 133.217,249.010 133.176,247.005 133.176 C 245.000 133.175,244.145 133.216,245.106 133.266 M256.365 133.711 C 255.912 134.402,254.824 135.118,253.385 135.672 C 252.770 135.909,250.487 136.078,246.354 136.192 L 240.234 136.361 245.714 136.410 C 250.094 136.449,251.504 136.373,252.745 136.032 C 253.598 135.798,254.496 135.597,254.740 135.586 C 254.984 135.575,255.137 135.519,255.080 135.462 C 255.023 135.405,255.325 135.066,255.749 134.709 C 256.478 134.095,257.208 133.073,256.916 133.073 C 256.843 133.073,256.595 133.360,256.365 133.711 M210.300 134.766 C 210.828 136.329,210.907 136.251,208.890 136.156 C 207.867 136.107,207.030 136.156,207.031 136.263 C 207.032 136.717,211.136 136.475,211.314 136.011 C 211.409 135.764,211.397 135.652,211.289 135.760 C 211.180 135.869,210.874 135.572,210.608 135.101 C 210.342 134.630,210.203 134.479,210.300 134.766 M267.672 134.881 C 268.010 135.176,268.420 135.415,268.584 135.413 C 268.894 135.409,268.462 135.064,267.578 134.612 C 267.169 134.403,267.189 134.460,267.672 134.881 M277.995 135.847 C 276.372 136.461,273.060 136.588,271.235 136.107 C 270.382 135.882,269.636 135.746,269.577 135.805 C 269.518 135.864,269.776 135.989,270.150 136.083 C 270.524 136.177,270.784 136.329,270.727 136.421 C 270.267 137.175,277.687 136.524,279.126 135.684 C 279.761 135.314,279.187 135.397,277.995 135.847 M217.839 136.198 L 216.276 136.371 217.904 136.415 C 218.844 136.440,219.531 136.348,219.531 136.198 C 219.531 136.055,219.502 135.957,219.466 135.981 C 219.430 136.005,218.698 136.103,217.839 136.198 M180.404 136.382 C 180.726 136.444,181.253 136.444,181.576 136.382 C 181.898 136.320,181.634 136.269,180.990 136.269 C 180.345 136.269,180.081 136.320,180.404 136.382 M292.773 136.377 C 293.024 136.443,293.434 136.443,293.685 136.377 C 293.936 136.312,293.730 136.258,293.229 136.258 C 292.728 136.258,292.523 136.312,292.773 136.377 M166.602 136.903 C 166.924 136.965,167.451 136.965,167.773 136.903 C 168.096 136.840,167.832 136.790,167.188 136.790 C 166.543 136.790,166.279 136.840,166.602 136.903 M243.802 136.912 C 245.048 136.960,247.157 136.960,248.489 136.913 C 249.822 136.866,248.802 136.827,246.224 136.826 C 243.646 136.826,242.556 136.865,243.802 136.912 M308.533 136.907 C 309.001 136.965,309.704 136.964,310.096 136.905 C 310.487 136.845,310.104 136.798,309.245 136.799 C 308.385 136.801,308.065 136.850,308.533 136.907 M139.696 142.643 C 139.235 143.260,139.159 143.452,139.491 143.163 C 139.780 142.913,140.113 142.795,140.232 142.903 C 140.351 143.011,140.361 142.947,140.254 142.762 C 140.147 142.577,140.201 142.254,140.374 142.046 C 140.547 141.837,140.630 141.667,140.558 141.667 C 140.485 141.667,140.098 142.106,139.696 142.643 M136.589 146.024 C 135.299 147.261,134.831 147.792,135.547 147.205 C 136.822 146.159,139.287 143.738,139.052 143.763 C 138.986 143.770,137.878 144.787,136.589 146.024 M127.865 151.693 C 127.507 151.897,127.331 152.065,127.474 152.065 C 127.617 152.065,128.027 151.897,128.385 151.693 C 128.743 151.488,128.919 151.321,128.776 151.321 C 128.633 151.321,128.223 151.488,127.865 151.693 M121.224 153.521 C 120.293 153.717,119.977 153.851,120.443 153.853 C 120.872 153.855,121.810 153.706,122.526 153.522 C 124.199 153.092,123.266 153.091,121.224 153.521 M110.426 153.466 C 110.676 153.743,113.554 154.097,113.695 153.868 C 113.771 153.746,113.504 153.645,113.101 153.643 C 112.699 153.641,111.901 153.566,111.328 153.476 C 110.755 153.386,110.349 153.381,110.426 153.466 M115.177 154.098 C 115.862 154.152,116.916 154.151,117.521 154.097 C 118.125 154.042,117.565 153.998,116.276 153.999 C 114.987 153.999,114.492 154.044,115.177 154.098 " stroke="none" fill="#041a42" fill-rule="evenodd"/><path id="path4" d="M116.605 90.028 C 116.929 90.090,117.397 90.088,117.646 90.023 C 117.895 89.957,117.630 89.907,117.057 89.909 C 116.484 89.912,116.281 89.966,116.605 90.028 M96.875 100.081 C 96.875 100.126,97.256 100.507,97.721 100.928 L 98.568 101.693 97.803 100.846 C 97.090 100.057,96.875 99.880,96.875 100.081 M145.218 130.597 C 145.300 130.811,145.472 130.922,145.600 130.843 C 145.968 130.615,145.872 130.208,145.451 130.208 C 145.219 130.208,145.127 130.361,145.218 130.597 M130.729 139.714 C 130.097 140.358,129.638 140.885,129.709 140.885 C 129.781 140.885,130.357 140.358,130.990 139.714 C 131.622 139.069,132.081 138.542,132.009 138.542 C 131.938 138.542,131.362 139.069,130.729 139.714 M91.635 140.987 C 91.867 141.433,92.146 141.836,92.254 141.884 C 92.363 141.932,92.374 142.097,92.279 142.250 C 92.177 142.415,92.230 142.452,92.408 142.343 C 92.573 142.240,92.723 142.281,92.741 142.433 C 92.759 142.584,92.788 142.823,92.806 142.964 C 92.824 143.104,93.104 143.405,93.429 143.633 C 93.753 143.860,93.965 144.134,93.899 144.241 C 93.832 144.348,94.320 144.955,94.983 145.590 C 95.645 146.225,96.099 146.569,95.991 146.354 C 95.817 146.007,95.834 146.007,96.151 146.354 C 96.348 146.569,96.679 146.908,96.887 147.109 C 97.218 147.426,97.216 147.450,96.875 147.294 C 96.660 147.196,96.708 147.267,96.980 147.451 C 97.253 147.636,97.860 148.114,98.330 148.514 C 98.799 148.914,99.455 149.294,99.787 149.357 C 100.119 149.421,100.526 149.658,100.692 149.884 C 100.858 150.110,101.064 150.287,101.148 150.278 C 101.233 150.268,101.273 150.330,101.237 150.414 C 101.125 150.679,104.246 152.114,104.406 151.871 C 104.489 151.744,104.733 151.564,104.948 151.470 C 105.163 151.376,105.026 151.358,104.644 151.430 C 104.262 151.503,103.910 151.464,103.863 151.345 C 103.815 151.226,102.926 150.635,101.888 150.032 C 100.850 149.429,100.000 148.816,100.000 148.671 C 100.000 148.526,99.903 148.467,99.785 148.540 C 99.573 148.670,96.354 146.212,96.354 145.920 C 96.354 145.837,96.530 145.915,96.745 146.094 C 97.015 146.318,97.135 146.328,97.135 146.126 C 97.135 145.965,97.018 145.819,96.875 145.801 C 96.732 145.783,96.470 145.754,96.294 145.736 C 96.118 145.718,95.971 145.441,95.968 145.121 C 95.966 144.800,95.846 144.566,95.703 144.600 C 95.560 144.634,95.481 144.775,95.527 144.915 C 95.573 145.054,95.368 144.948,95.071 144.679 C 94.455 144.121,94.330 143.779,94.922 144.271 C 95.165 144.472,95.313 144.491,95.313 144.320 C 95.313 144.169,95.049 143.962,94.728 143.860 C 94.148 143.676,93.993 143.524,92.936 142.107 L 92.390 141.375 93.396 141.813 C 97.713 143.691,102.245 143.866,106.459 142.318 C 107.741 141.846,107.242 141.843,105.485 142.310 C 103.898 142.732,96.875 142.802,96.875 142.396 C 96.875 142.264,96.755 142.231,96.609 142.321 C 96.201 142.573,93.717 141.671,93.918 141.344 C 94.022 141.177,93.968 141.141,93.784 141.255 C 93.616 141.359,92.968 141.159,92.345 140.811 L 91.212 140.178 91.635 140.987 M96.354 144.922 C 96.354 145.137,96.478 145.313,96.630 145.313 C 96.782 145.313,96.839 145.205,96.759 145.074 C 96.678 144.943,96.759 144.777,96.938 144.704 C 97.136 144.625,97.085 144.564,96.810 144.552 C 96.559 144.541,96.354 144.707,96.354 144.922 M237.040 150.521 C 237.040 151.022,237.093 151.227,237.159 150.977 C 237.224 150.726,237.224 150.316,237.159 150.065 C 237.093 149.814,237.040 150.020,237.040 150.521 M245.833 150.521 L 244.922 150.713 246.044 150.747 C 246.733 150.768,247.104 150.681,247.005 150.521 C 246.917 150.378,246.822 150.276,246.795 150.295 C 246.767 150.314,246.335 150.415,245.833 150.521 " stroke="none" fill="#1d508a" fill-rule="evenodd"/></g></svg>