<svg xmlns="http://www.w3.org/2000/svg" viewBox="0 0 75 68" fill="none">
  <!-- Waves -->
  <path d="M18 58c-2 0-4-1-5-3-1-2-1-4 0-6l8-16c3-5 8-9 14-10 2-1 4 0 6 1l12 10c2 2 5 3 8 2 3 0 5-2 7-4l4-6c1-2 3-2 5-1 1 1 2 3 1 5l-4 6c-3 5-8 8-14 9-3 0-6 0-8-2L39 33c-2-2-5-2-7-1-4 1-7 4-9 7l-8 16c-1 2-2 3-4 3z" fill="#5BB8A6"/>
  <path d="M8 65c-2 0-3-1-4-2-2-2-1-5 0-6l6-10c4-7 11-12 19-13 4-1 8 0 11 2l10 8c2 1 4 2 6 1 2 0 4-1 5-3l3-5c1-2 3-3 5-2 2 1 3 3 2 5l-3 5c-3 5-8 8-14 9-4 1-8 0-11-2l-10-8c-2-1-4-2-6-1-5 1-10 4-13 9l-6 10c-1 2-2 2-3 2z" fill="#3AAFA9"/>
  <!-- WiFi arcs -->
  <path d="M30 28c-1 0-2-1-3-2-1-1-1-3 0-4 5-6 13-9 21-9s16 3 21 9c1 1 1 3 0 4-1 2-3 2-4 0-4-5-10-7-17-7s-13 2-17 7c-1 1-1 2-2 2z" fill="#2B6CB0"/>
  <path d="M37 21c-1 0-2 0-2-1-1-1-1-3 0-4 4-4 9-6 14-6s11 2 14 6c1 1 1 3 0 4-1 1-3 1-4 0-3-3-7-5-11-5s-8 2-11 5c0 1-1 1-2 1z" fill="#2B6CB0"/>
  <path d="M43 14c-1 0-2 0-2-1-1-1-1-3 0-4 2-2 5-4 8-4s6 2 8 4c1 1 1 3 0 4-1 1-3 1-4 0-1-1-3-2-5-2s-3 1-5 2c0 1-1 1-2 1z" fill="#2B6CB0"/>
</svg>
